<svg id="レイヤー_1" data-name="レイヤー 1" xmlns="http://www.w3.org/2000/svg" viewBox="0 0 249.3 331.64"><defs><style>.cls-1{fill:#f1c760;}.cls-2{fill:#eeeeef;}.cls-3{fill:#5da5c0;}.cls-4{fill:#ffab95;}.cls-5{fill:#4db686;}.cls-6{fill:#cebaa1;}</style></defs><title>TopBGImg</title><path class="cls-1" d="M42,1H.4V42.45H42Z" transform="translate(-0.4 -0.99)"/><path class="cls-2" d="M83.5,1H42V42.45H83.5Z" transform="translate(-0.4 -0.99)"/><path class="cls-3" d="M42,42.45H.4V83.9H42Z" transform="translate(-0.4 -0.99)"/><path class="cls-4" d="M83.5,42.45H42V83.9H83.5Z" transform="translate(-0.4 -0.99)"/><path class="cls-5" d="M42,83.9H.4v41.46H42Z" transform="translate(-0.4 -0.99)"/><path class="cls-2" d="M83.5,83.9H42v41.46H83.5Z" transform="translate(-0.4 -0.99)"/><path class="cls-2" d="M42,125.36H.4v41.45H42Z" transform="translate(-0.4 -0.99)"/><path class="cls-1" d="M83.5,125.36H42v41.45H83.5Z" transform="translate(-0.4 -0.99)"/><path class="cls-1" d="M125.05,1H83.5V42.45h41.55Z" transform="translate(-0.4 -0.99)"/><path class="cls-6" d="M166.6,1H125.05V42.45H166.6Z" transform="translate(-0.4 -0.99)"/><path class="cls-3" d="M125.05,42.45H83.5V83.9h41.55Z" transform="translate(-0.4 -0.99)"/><path class="cls-2" d="M166.6,42.45H125.05V83.9H166.6Z" transform="translate(-0.4 -0.99)"/><path class="cls-6" d="M125.05,83.9H83.5v41.46h41.55Z" transform="translate(-0.4 -0.99)"/><path class="cls-5" d="M166.6,83.9H125.05v41.46H166.6Z" transform="translate(-0.4 -0.99)"/><path class="cls-2" d="M125.05,125.36H83.5v41.45h41.55Z" transform="translate(-0.4 -0.99)"/><path class="cls-3" d="M166.6,125.36H125.05v41.45H166.6Z" transform="translate(-0.4 -0.99)"/><path class="cls-3" d="M208.15,1H166.6V42.45h41.55Z" transform="translate(-0.4 -0.99)"/><path class="cls-2" d="M249.7,1H208.15V42.45H249.7Z" transform="translate(-0.4 -0.99)"/><path class="cls-1" d="M208.15,42.45H166.6V83.9h41.55Z" transform="translate(-0.4 -0.99)"/><path class="cls-5" d="M249.7,42.45H208.15V83.9H249.7Z" transform="translate(-0.4 -0.99)"/><path class="cls-2" d="M208.15,83.9H166.6v41.46h41.55Z" transform="translate(-0.4 -0.99)"/><path class="cls-3" d="M249.7,83.9H208.15v41.46H249.7Z" transform="translate(-0.4 -0.99)"/><path class="cls-6" d="M208.15,125.36H166.6v41.45h41.55Z" transform="translate(-0.4 -0.99)"/><path class="cls-1" d="M249.7,125.36H208.15v41.45H249.7Z" transform="translate(-0.4 -0.99)"/><path class="cls-3" d="M42,166.81H.4v41.46H42Z" transform="translate(-0.4 -0.99)"/><path class="cls-2" d="M83.5,166.81H42v41.46H83.5Z" transform="translate(-0.4 -0.99)"/><path class="cls-1" d="M42,208.27H.4v41.45H42Z" transform="translate(-0.4 -0.99)"/><path class="cls-5" d="M83.5,208.27H42v41.45H83.5Z" transform="translate(-0.4 -0.99)"/><path class="cls-2" d="M42,249.73H.4v41.45H42Z" transform="translate(-0.4 -0.99)"/><path class="cls-4" d="M83.5,249.73H42v41.45H83.5Z" transform="translate(-0.4 -0.99)"/><path class="cls-6" d="M42,291.18H.4v41.45H42Z" transform="translate(-0.4 -0.99)"/><path class="cls-1" d="M83.5,291.18H42v41.45H83.5Z" transform="translate(-0.4 -0.99)"/><path class="cls-3" d="M125.05,166.81H83.5v41.46h41.55Z" transform="translate(-0.4 -0.99)"/><path class="cls-4" d="M166.6,166.81H125.05v41.46H166.6Z" transform="translate(-0.4 -0.99)"/><path class="cls-6" d="M125.05,208.27H83.5v41.45h41.55Z" transform="translate(-0.4 -0.99)"/><path class="cls-2" d="M166.6,208.27H125.05v41.45H166.6Z" transform="translate(-0.4 -0.99)"/><path class="cls-2" d="M125.05,249.73H83.5v41.45h41.55Z" transform="translate(-0.4 -0.99)"/><path class="cls-1" d="M166.6,249.73H125.05v41.45H166.6Z" transform="translate(-0.4 -0.99)"/><path class="cls-5" d="M125.05,291.18H83.5v41.45h41.55Z" transform="translate(-0.4 -0.99)"/><path class="cls-4" d="M166.6,291.18H125.05v41.45H166.6Z" transform="translate(-0.4 -0.99)"/><path class="cls-1" d="M208.15,166.81H166.6v41.46h41.55Z" transform="translate(-0.4 -0.99)"/><path class="cls-2" d="M249.7,166.81H208.15v41.46H249.7Z" transform="translate(-0.4 -0.99)"/><path class="cls-3" d="M208.15,208.27H166.6v41.45h41.55Z" transform="translate(-0.4 -0.99)"/><path class="cls-4" d="M249.7,208.27H208.15v41.45H249.7Z" transform="translate(-0.4 -0.99)"/><path class="cls-5" d="M208.15,249.73H166.6v41.45h41.55Z" transform="translate(-0.4 -0.99)"/><path class="cls-2" d="M249.7,249.73H208.15v41.45H249.7Z" transform="translate(-0.4 -0.99)"/><path class="cls-2" d="M208.15,291.18H166.6v41.45h41.55Z" transform="translate(-0.4 -0.99)"/><path class="cls-1" d="M249.7,291.18H208.15v41.45H249.7Z" transform="translate(-0.4 -0.99)"/></svg>