<svg width="193" height="193" viewBox="0 0 193 193" fill="none" xmlns="http://www.w3.org/2000/svg">
<g clip-path="url(#clip0)">
<path d="M96.3343 192.669C149.538 192.669 192.669 149.538 192.669 96.3343C192.669 43.1303 149.538 0 96.3343 0C43.1303 0 0 43.1303 0 96.3343C0 149.538 43.1303 192.669 96.3343 192.669Z" fill="white"/>
<path d="M80.48 107.095V108.461H84.1181V119.855H85.588V108.461H89.2422V107.095H80.48Z" fill="#A4A4A4"/>
<path d="M97.8758 108.34C96.9918 107.456 95.9048 107.008 94.6468 107.008C93.3771 107.008 92.29 107.456 91.4163 108.342C90.8669 108.892 90.5118 109.563 90.3643 110.335C90.2576 110.869 90.205 111.892 90.205 113.457C90.205 115.022 90.2576 116.044 90.3643 116.582C90.5118 117.351 90.864 118.027 91.4148 118.59C92.084 119.259 92.8949 119.677 93.8285 119.835L94.1456 119.889V118.511L93.9352 118.463C93.3917 118.337 92.9153 118.077 92.5194 117.691C92.1512 117.323 91.9116 116.847 91.8078 116.275C91.7202 115.779 91.6749 114.83 91.6749 113.458C91.6749 112.086 91.7202 111.145 91.8078 110.659C91.9116 110.076 92.1527 109.594 92.5223 109.224C93.1024 108.654 93.7979 108.377 94.6468 108.377C95.484 108.377 96.1736 108.654 96.7551 109.226C97.1233 109.594 97.3629 110.076 97.4667 110.659C97.5675 111.148 97.6172 112.089 97.6172 113.46C97.6172 114.83 97.5675 115.777 97.4681 116.272C97.3629 116.848 97.1233 117.326 96.7536 117.696C96.3372 118.112 95.8302 118.382 95.2458 118.496L95.0266 118.539V119.9L95.3378 119.855C96.3299 119.71 97.1847 119.285 97.8758 118.594C98.4281 118.03 98.7817 117.355 98.9292 116.582C99.0257 116.04 99.0709 115.02 99.0709 113.46C99.0709 111.899 99.0242 110.879 98.9292 110.342C98.7817 109.563 98.4281 108.892 97.8758 108.34Z" fill="#A4A4A4"/>
<path d="M106.492 112.059L110.149 107.536L110.507 107.094H108.694L108.612 107.195L102.899 114.236V107.094H101.429V119.854H102.899V116.369L105.504 113.211L109.239 119.718L109.318 119.854H111.046L110.808 119.444L106.492 112.059Z" fill="#A4A4A4"/>
<path d="M118.62 107.095L118.546 107.247L115.749 112.934L112.89 107.244L112.815 107.095H111.213L111.411 107.488L114.985 114.586V119.855H116.455V114.586L120.029 107.488L120.228 107.095H118.62Z" fill="#A4A4A4"/>
<path d="M128.461 108.34C127.577 107.456 126.49 107.008 125.232 107.008C123.962 107.008 122.875 107.456 122.001 108.342C121.452 108.892 121.097 109.563 120.949 110.335C120.843 110.869 120.79 111.892 120.79 113.457C120.79 115.022 120.843 116.044 120.949 116.582C121.097 117.351 121.449 118.027 122 118.59C122.669 119.259 123.48 119.677 124.414 119.835L124.731 119.889V118.511L124.52 118.463C123.977 118.337 123.5 118.077 123.104 117.691C122.736 117.323 122.497 116.847 122.393 116.275C122.305 115.779 122.26 114.83 122.26 113.458C122.26 112.086 122.305 111.145 122.393 110.659C122.497 110.076 122.738 109.594 123.107 109.224C123.687 108.654 124.383 108.377 125.232 108.377C126.069 108.377 126.759 108.654 127.34 109.226C127.708 109.594 127.948 110.076 128.053 110.659C128.153 111.148 128.204 112.088 128.204 113.46C128.204 114.83 128.154 115.777 128.055 116.272C127.949 116.848 127.71 117.326 127.34 117.696C126.924 118.112 126.417 118.382 125.832 118.496L125.613 118.539V119.9L125.924 119.855C126.916 119.71 127.771 119.285 128.462 118.594C129.015 118.03 129.368 117.355 129.516 116.582C129.612 116.04 129.657 115.02 129.657 113.46C129.657 111.899 129.611 110.879 129.516 110.342C129.367 109.563 129.013 108.892 128.461 108.34Z" fill="#A4A4A4"/>
<path d="M140.253 110.472C140.253 109.442 139.933 108.593 139.301 107.949C138.652 107.313 137.797 106.992 136.755 106.992C135.699 106.992 134.837 107.33 134.193 108.001C133.573 108.645 133.259 109.477 133.259 110.472V110.744H134.676V110.472C134.676 109.733 134.878 109.186 135.293 108.8C135.655 108.469 136.133 108.307 136.755 108.307C137.416 108.307 137.918 108.498 138.291 108.891C138.656 109.277 138.835 109.794 138.835 110.472C138.835 111.102 138.629 111.67 138.206 112.209L133.296 118.647L133.24 118.72V119.855H140.252V118.54H135.107L139.355 112.988C139.951 112.211 140.253 111.363 140.253 110.472Z" fill="#A4A4A4"/>
<path d="M145.481 106.974C144.472 106.974 143.633 107.307 142.988 107.965C142.334 108.632 142.001 109.487 142.001 110.505V116.408C142.001 117.302 142.258 118.075 142.765 118.707C143.273 119.339 143.946 119.735 144.764 119.886L145.084 119.944V118.601L144.881 118.549C144.417 118.429 144.065 118.175 143.804 117.771C143.548 117.383 143.42 116.896 143.42 116.324V110.592C143.42 109.908 143.599 109.356 143.953 108.952C144.328 108.505 144.828 108.29 145.481 108.29C146.146 108.29 146.651 108.505 147.024 108.949C147.369 109.356 147.543 109.908 147.543 110.593V116.325C147.543 117.517 147.094 118.236 146.174 118.52L145.982 118.578V119.94L146.312 119.868C147.106 119.694 147.753 119.292 148.235 118.672C148.719 118.04 148.963 117.281 148.963 116.411V110.508C148.963 109.491 148.637 108.637 147.994 107.969C147.345 107.309 146.501 106.974 145.481 106.974Z" fill="#A4A4A4"/>
<path d="M153.678 107.095L153.602 107.161L151.388 109.065L151.293 109.147V110.92L151.745 110.522L153.507 108.964V119.855H154.926V107.095H153.678Z" fill="#A4A4A4"/>
<path d="M163.859 108.061C163.223 107.363 162.352 107.009 161.271 107.009C160.197 107.009 159.325 107.393 158.679 108.152C158.079 108.85 157.773 109.753 157.773 110.834C157.773 111.794 158.029 112.618 158.532 113.28C159.082 113.981 159.825 114.385 160.744 114.484L160.935 114.504L161.018 114.331L161.379 113.575L161.555 113.207L161.147 113.187C160.526 113.156 160.047 112.915 159.683 112.45C159.359 112.015 159.192 111.446 159.192 110.764C159.192 110.012 159.383 109.407 159.762 108.968C160.134 108.536 160.628 108.325 161.271 108.325C161.915 108.325 162.409 108.536 162.78 108.968C163.171 109.41 163.368 110.013 163.368 110.764C163.368 111.204 163.283 111.617 163.117 111.991L159.449 119.463L159.258 119.855H160.858L160.932 119.705L164.072 113.39C164.535 112.403 164.769 111.505 164.769 110.711C164.769 109.63 164.462 108.738 163.859 108.061Z" fill="#A4A4A4"/>
<path d="M36.8459 84.5267C36.238 84.5267 35.6887 84.8905 35.4505 85.4501L29.7829 98.7913L27.8207 87.4737C27.679 86.5591 26.8914 85.8841 25.9666 85.8841C25.1717 85.8841 24.4616 86.3852 24.1972 87.1362L19.5597 98.917L16.9691 85.7891C16.8245 85.0556 16.1802 84.5267 15.4335 84.5267C14.4488 84.5267 13.708 85.4253 13.8965 86.3925L17.257 103.651H20.917L25.3982 92.3859L27.4174 103.651H30.8568L38.2368 86.6467C38.6708 85.6444 37.9373 84.5267 36.8459 84.5267Z" fill="#2A8E60"/>
<path d="M54.3965 91.5331C53.6981 91.0934 52.7776 91.2935 52.3247 91.9817L50.5845 94.6234C49.6377 91.6252 46.6717 90.4899 44.3676 90.4899C42.379 90.4899 40.107 91.2482 37.93 94.5927L33.8784 100.789C33.4167 101.495 33.6241 102.44 34.3371 102.889C35.0356 103.329 35.956 103.125 36.4046 102.433L38.1521 99.7357C39.0989 102.734 42.0649 103.869 44.369 103.869C46.6089 103.869 48.7874 102.987 50.7438 99.9885L54.8626 93.64C55.3199 92.9314 55.111 91.9832 54.3965 91.5331ZM44.3676 100.967C42.2534 100.967 40.6754 99.3894 40.6754 97.1803C40.6754 95.0339 42.1277 93.3303 44.3676 93.3303C46.4818 93.3303 48.0597 94.9711 48.0597 97.1803C48.0597 99.3266 46.6074 100.967 44.3676 100.967Z" fill="#2A8E60"/>
<path d="M71.9486 91.3359C71.2458 90.9019 70.3253 91.1167 69.887 91.8166L66.2284 97.6537V92.3309C66.2284 91.4703 65.5315 90.7734 64.6709 90.7734H63.3881V91.1518C63.3881 92.9825 62.5363 93.5509 61.4945 93.5509C60.4221 93.5509 59.6331 92.9197 59.6331 91.089V90.7734H56.8555V91.7202C56.8234 93.8022 56.5399 95.2546 55.1197 97.4944L53.1239 100.633C52.671 101.344 52.8697 102.287 53.5695 102.757C54.2972 103.245 55.2834 103.035 55.7495 102.294L58.0536 98.6311C58.7476 97.4959 59.1261 96.7697 59.3467 95.9807C59.8844 96.2335 60.5141 96.3898 61.2081 96.3898C61.8393 96.3898 62.5027 96.2642 63.1338 95.9807V103.649H66.0443L72.4293 93.4106C72.8735 92.7064 72.6572 91.7742 71.9486 91.3359Z" fill="#2A8E60"/>
<path d="M89.9084 91.5624C89.2217 91.127 88.3114 91.3315 87.876 92.0182L84.2788 97.6858V84.4995H81.25V90.6799C80.7123 90.5849 80.0504 90.4914 79.3549 90.4914C75.8205 90.4914 72.6646 93.2689 72.6646 97.1817C72.6646 101.726 75.9462 103.872 79.954 103.872C81.659 103.872 83.6564 103.619 85.2066 101.717C86.054 100.678 90.3628 93.6006 90.3628 93.6006C90.8026 92.911 90.598 91.9978 89.9084 91.5624ZM81.2485 100.935C80.8058 101.03 80.3967 101.061 79.859 101.061C77.1457 101.061 75.6934 99.388 75.6934 97.1803C75.6934 94.7183 77.4599 93.3303 79.5127 93.3303C80.3324 93.3303 80.8701 93.4253 81.2485 93.5831V100.935Z" fill="#2A8E60"/>
<path d="M102.107 87.4918C103.974 87.4918 105.5 88.2194 106.666 89.3985C107.176 89.9142 107.962 90.0341 108.562 89.6279L108.784 89.4774C109.538 88.9689 109.642 87.9038 109.017 87.2434C107.082 85.2051 104.53 84.3051 102.107 84.3051C96.7098 84.3051 92.5121 88.6592 92.5121 94.0886C92.5121 99.705 96.647 103.871 102.107 103.871C104.096 103.871 105.988 103.272 107.408 102.294L105.893 99.6115C104.756 100.275 103.494 100.684 102.106 100.684C98.4134 100.684 95.7937 97.7501 95.7937 94.0886C95.7951 90.4899 98.3199 87.4918 102.107 87.4918Z" fill="#CD971B"/>
<path d="M127.057 91.5653C126.367 91.1284 125.454 91.3359 125.02 92.027L121.326 97.9064V93.7847C121.326 92.61 120.613 91.5331 119.509 91.1343C118.41 90.7383 117.136 90.4885 115.898 90.4885C111.291 90.4885 108.293 93.3917 108.293 97.6201C108.293 99.2287 108.813 100.481 109.578 101.737C109.953 102.355 111.121 103.647 112.68 103.647C114.027 103.647 115.039 102.008 115.039 102.008L118.392 96.7054V101.539C118.392 101.539 118.284 103.64 119.94 103.64C121.122 103.64 122.109 102.202 122.697 101.27L127.52 93.5962C127.949 92.908 127.743 92.0007 127.057 91.5653ZM112.393 100.842C111.572 99.8322 111.289 98.6954 111.289 97.4345C111.289 95.1625 112.709 93.2368 115.549 93.2368C116.117 93.2368 116.622 93.2689 117.159 93.4253L112.393 100.842Z" fill="#CD971B"/>
<path d="M163.518 91.5741C162.833 91.1489 161.933 91.3564 161.503 92.0402L157.893 97.7808V94.1514C157.893 91.9423 156.821 90.4914 154.644 90.4914C153.286 90.4914 151.961 90.9326 150.824 92.7006L147.763 97.5616V94.1529C147.763 91.9437 146.691 90.4928 144.512 90.4928C143.155 90.4928 141.83 90.9341 140.693 92.702L137.6 97.6259V94.1543C137.6 91.9452 136.527 90.4943 134.349 90.4943C132.993 90.4943 131.666 90.9356 130.531 92.7035L125.092 101.305C124.641 102.018 124.855 102.96 125.566 103.412C126.282 103.866 127.232 103.65 127.682 102.931L133.117 94.2815C133.465 93.7131 133.654 93.4925 134 93.4925C134.346 93.4925 134.537 93.6181 134.537 94.375V103.653H137.378H137.41L143.279 94.28C143.627 93.7116 143.817 93.491 144.163 93.491C144.509 93.491 144.699 93.6167 144.699 94.3735V103.651H147.54L153.41 94.2785C153.758 93.7102 153.948 93.4896 154.294 93.4896C154.642 93.4896 154.831 93.6152 154.831 94.3721V103.65H157.671L163.986 93.6021C164.42 92.9124 164.209 92.0036 163.518 91.5741Z" fill="#CD971B"/>
<path d="M172.307 90.4899C171.689 90.4899 171.009 90.5469 170.353 90.6375C167.962 90.9736 166.959 92.7181 166.959 92.7181L161.375 101.441C160.951 102.116 161.146 103.007 161.813 103.443C162.503 103.893 163.428 103.687 163.859 102.984L167.919 96.5462V110.999H170.948V103.678C171.454 103.803 172.053 103.866 172.716 103.866C176.534 103.866 179.532 101.09 179.532 97.1759C179.533 92.6363 176.315 90.4899 172.307 90.4899ZM172.622 101.03C172.023 101.03 171.423 100.967 170.949 100.872V93.4238C171.392 93.3288 171.833 93.2981 172.37 93.2981C175.084 93.2981 176.505 94.9711 176.505 97.1803C176.505 99.6422 174.832 101.03 172.622 101.03Z" fill="#CD971B"/>
<path d="M52.4343 148.288H54.2533C54.3878 148.288 54.471 148.305 54.5061 148.339C54.5412 148.373 54.5572 148.457 54.5572 148.592V148.978C54.5572 149.112 54.5397 149.195 54.5061 149.23C54.4725 149.265 54.3878 149.281 54.2533 149.281H50.8285C50.7175 149.281 50.6444 149.271 50.6108 149.251C50.5538 149.22 50.5246 149.169 50.5246 149.1C50.5246 149.055 50.567 148.985 50.6532 148.89L52.0266 147.324C52.5658 146.71 52.9252 146.26 53.1049 145.973C53.2846 145.687 53.3752 145.42 53.3752 145.171C53.3752 144.897 53.2729 144.675 53.0669 144.504C52.9018 144.363 52.7075 144.293 52.4854 144.293C52.1494 144.293 51.898 144.441 51.7315 144.734C51.6993 144.791 51.6803 144.835 51.673 144.865C51.6657 144.895 51.654 144.971 51.6365 145.094C51.6277 145.157 51.6029 145.199 51.562 145.22C51.5211 145.241 51.4451 145.252 51.337 145.252H50.7292C50.6094 145.252 50.529 145.239 50.4866 145.214C50.4457 145.187 50.4253 145.138 50.4253 145.063C50.4253 144.911 50.4691 144.732 50.5553 144.521C50.643 144.311 50.7496 144.125 50.8782 143.963C51.0579 143.738 51.2858 143.569 51.5635 143.457C51.8396 143.344 52.1362 143.287 52.4489 143.287C53.0655 143.287 53.5681 143.472 53.9553 143.843C54.3293 144.203 54.5163 144.642 54.5163 145.161C54.5163 145.49 54.433 145.813 54.2679 146.131C54.1028 146.45 53.8311 146.808 53.4541 147.208L52.4343 148.288Z" fill="#4B4B4B"/>
<path d="M57.6095 143.288C58.0653 143.288 58.4832 143.441 58.8587 143.75C59.5352 144.306 59.8727 145.176 59.8727 146.356C59.8727 147.249 59.6696 147.975 59.2649 148.535C59.0618 148.814 58.8178 149.033 58.5329 149.189C58.2392 149.349 57.9324 149.429 57.6124 149.429C57.1478 149.429 56.7284 149.276 56.3544 148.967C55.6808 148.411 55.3448 147.527 55.3448 146.314C55.3448 145.437 55.5479 144.727 55.9526 144.182C56.3924 143.586 56.9447 143.288 57.6095 143.288ZM57.6095 144.293C57.4502 144.293 57.2997 144.343 57.158 144.441C57.0163 144.539 56.9008 144.679 56.8088 144.859C56.5926 145.272 56.483 145.781 56.483 146.383C56.483 146.951 56.5911 147.443 56.8088 147.86C56.8994 148.037 57.0163 148.175 57.158 148.275C57.2997 148.374 57.4502 148.425 57.6095 148.425C57.7687 148.425 57.9207 148.376 58.0639 148.275C58.2071 148.175 58.324 148.037 58.4145 147.86C58.6279 147.443 58.736 146.942 58.736 146.358C58.736 145.762 58.6293 145.262 58.4145 144.86C58.2144 144.482 57.9455 144.293 57.6095 144.293Z" fill="#4B4B4B"/>
<path d="M62.0862 144.431H61.5471C61.4127 144.431 61.3294 144.413 61.2943 144.379C61.2593 144.346 61.2432 144.261 61.2432 144.127V143.741C61.2432 143.607 61.2607 143.523 61.2943 143.488C61.3279 143.453 61.4127 143.437 61.5471 143.437H62.9249C63.0564 143.437 63.1382 143.455 63.1733 143.488C63.2084 143.522 63.2244 143.607 63.2244 143.741V148.976C63.2244 149.11 63.2069 149.194 63.1733 149.229C63.1397 149.264 63.0564 149.28 62.9249 149.28H62.3858C62.2543 149.28 62.1724 149.262 62.1374 149.229C62.1023 149.195 62.0862 149.11 62.0862 148.976V144.431Z" fill="#4B4B4B"/>
<path d="M67.8356 147.139C67.5902 147.236 67.3608 147.286 67.146 147.286C66.6668 147.286 66.2533 147.115 65.9041 146.771C65.5213 146.394 65.3299 145.921 65.3299 145.35C65.3299 144.697 65.5753 144.168 66.0663 143.766C66.4608 143.443 66.959 143.282 67.5639 143.282C68.2521 143.282 68.7985 143.49 69.2032 143.903C69.5773 144.286 69.7643 144.746 69.7643 145.285C69.7643 145.873 69.5203 146.494 69.0323 147.147L67.4353 149.283C67.352 149.394 67.279 149.449 67.2132 149.449C67.1767 149.449 67.1095 149.414 67.0116 149.343L66.6901 149.099C66.6156 149.042 66.5689 149.001 66.5513 148.978C66.5323 148.953 66.5236 148.921 66.5236 148.881C66.5236 148.842 66.5601 148.773 66.6346 148.675L67.8356 147.139ZM67.5537 144.191C67.2512 144.191 66.9955 144.298 66.788 144.512C66.5762 144.726 66.471 144.987 66.471 145.296C66.471 145.586 66.5762 145.839 66.788 146.054C66.997 146.267 67.2512 146.375 67.5537 146.375C67.8561 146.375 68.1103 146.27 68.3149 146.058C68.5238 145.845 68.6276 145.585 68.6276 145.279C68.6276 144.968 68.5253 144.71 68.3193 144.505C68.1045 144.295 67.8503 144.191 67.5537 144.191Z" fill="#4B4B4B"/>
<path d="M73.6143 143.361L70.7213 150.287C70.6351 150.49 70.565 150.62 70.508 150.678C70.451 150.737 70.3663 150.766 70.2552 150.766C70.1529 150.766 70.0624 150.729 69.9835 150.656C69.9046 150.583 69.8651 150.5 69.8651 150.406C69.8651 150.326 69.9075 150.186 69.9937 149.983L72.8867 143.053C72.9729 142.847 73.043 142.715 73.0985 142.657C73.154 142.598 73.2388 142.569 73.3527 142.569C73.455 142.569 73.5456 142.606 73.6245 142.679C73.7034 142.752 73.7429 142.837 73.7429 142.933C73.7429 143.012 73.7005 143.155 73.6143 143.361Z" fill="#4B4B4B"/>
<path d="M76.1054 144.431H75.5663C75.4319 144.431 75.3486 144.413 75.3135 144.379C75.2785 144.346 75.2624 144.261 75.2624 144.127V143.741C75.2624 143.607 75.2799 143.523 75.3135 143.488C75.3471 143.453 75.4319 143.437 75.5663 143.437H76.9441C77.0756 143.437 77.1574 143.455 77.1925 143.488C77.2276 143.522 77.2436 143.607 77.2436 143.741V148.976C77.2436 149.11 77.2261 149.194 77.1925 149.229C77.1589 149.264 77.0756 149.28 76.9441 149.28H76.405C76.2735 149.28 76.1917 149.262 76.1566 149.229C76.1215 149.195 76.1054 149.11 76.1054 148.976V144.431Z" fill="#4B4B4B"/>
<path d="M81.0746 144.431H80.5355C80.4011 144.431 80.3178 144.413 80.2827 144.379C80.2476 144.346 80.2316 144.261 80.2316 144.127V143.741C80.2316 143.607 80.2491 143.523 80.2827 143.488C80.3163 143.453 80.4011 143.437 80.5355 143.437H81.9133C82.0448 143.437 82.1266 143.455 82.1617 143.488C82.1967 143.522 82.2128 143.607 82.2128 143.741V148.976C82.2128 149.11 82.1953 149.194 82.1617 149.229C82.1281 149.264 82.0448 149.28 81.9133 149.28H81.3741C81.2426 149.28 81.1608 149.262 81.1258 149.229C81.0907 149.195 81.0746 149.11 81.0746 148.976V144.431Z" fill="#4B4B4B"/>
<path d="M87.6335 143.361L84.7405 150.287C84.6543 150.49 84.5842 150.62 84.5272 150.678C84.4702 150.737 84.3855 150.766 84.2744 150.766C84.1721 150.766 84.0816 150.729 84.0027 150.656C83.9238 150.583 83.8843 150.5 83.8843 150.406C83.8843 150.326 83.9267 150.186 84.0129 149.983L86.9058 143.053C86.9921 142.847 87.0622 142.715 87.1177 142.657C87.1732 142.598 87.258 142.569 87.3719 142.569C87.4742 142.569 87.5648 142.606 87.6437 142.679C87.7226 142.752 87.762 142.837 87.762 142.933C87.762 143.012 87.7182 143.155 87.6335 143.361Z" fill="#4B4B4B"/>
<path d="M90.1246 144.431H89.5855C89.4511 144.431 89.3678 144.413 89.3327 144.379C89.2977 144.346 89.2816 144.261 89.2816 144.127V143.741C89.2816 143.607 89.2991 143.523 89.3327 143.488C89.3663 143.453 89.4511 143.437 89.5855 143.437H90.9633C91.0948 143.437 91.1766 143.455 91.2117 143.488C91.2468 143.522 91.2628 143.607 91.2628 143.741V148.976C91.2628 149.11 91.2453 149.194 91.2117 149.229C91.1781 149.264 91.0948 149.28 90.9633 149.28H90.4242C90.2927 149.28 90.2108 149.262 90.1758 149.229C90.1407 149.195 90.1246 149.11 90.1246 148.976V144.431Z" fill="#4B4B4B"/>
<path d="M95.5994 146.819H96.9655C97.097 146.819 97.1788 146.837 97.2139 146.871C97.2489 146.904 97.265 146.989 97.265 147.123V147.405C97.265 147.54 97.2475 147.623 97.2139 147.658C97.1803 147.693 97.097 147.709 96.9655 147.709H95.5994C95.4649 147.709 95.3817 147.692 95.3466 147.658C95.3115 147.625 95.2954 147.54 95.2954 147.405V147.123C95.2954 146.989 95.313 146.906 95.3466 146.871C95.3802 146.836 95.4649 146.819 95.5994 146.819Z" fill="#4B4B4B"/>
<path d="M101.733 148.288H103.552C103.687 148.288 103.77 148.305 103.805 148.339C103.84 148.373 103.856 148.457 103.856 148.592V148.978C103.856 149.112 103.838 149.195 103.805 149.23C103.771 149.265 103.687 149.281 103.552 149.281H100.127C100.016 149.281 99.9432 149.271 99.9096 149.251C99.8526 149.22 99.8234 149.169 99.8234 149.1C99.8234 149.055 99.8657 148.985 99.9519 148.89L101.325 147.324C101.865 146.71 102.224 146.26 102.404 145.973C102.583 145.687 102.674 145.42 102.674 145.171C102.674 144.897 102.572 144.675 102.366 144.504C102.201 144.363 102.006 144.293 101.784 144.293C101.448 144.293 101.197 144.441 101.03 144.734C101 144.791 100.979 144.835 100.972 144.865C100.964 144.894 100.953 144.971 100.935 145.094C100.926 145.157 100.902 145.199 100.861 145.22C100.82 145.24 100.744 145.252 100.636 145.252H100.028C99.9081 145.252 99.8277 145.239 99.7854 145.214C99.743 145.189 99.724 145.138 99.724 145.063C99.724 144.911 99.7678 144.732 99.854 144.521C99.9402 144.311 100.048 144.125 100.177 143.963C100.357 143.738 100.585 143.569 100.862 143.457C101.138 143.344 101.435 143.287 101.748 143.287C102.364 143.287 102.867 143.472 103.254 143.843C103.628 144.203 103.815 144.642 103.815 145.161C103.815 145.49 103.732 145.813 103.567 146.131C103.402 146.45 103.13 146.808 102.753 147.208L101.733 148.288Z" fill="#4B4B4B"/>
<path d="M106.908 143.288C107.364 143.288 107.782 143.441 108.157 143.75C108.834 144.306 109.171 145.176 109.171 146.356C109.171 147.249 108.968 147.975 108.564 148.535C108.361 148.814 108.117 149.033 107.832 149.189C107.538 149.349 107.231 149.429 106.911 149.429C106.447 149.429 106.027 149.276 105.653 148.967C104.98 148.411 104.644 147.527 104.644 146.314C104.644 145.437 104.847 144.727 105.251 144.182C105.691 143.586 106.243 143.288 106.908 143.288ZM106.908 144.293C106.749 144.293 106.598 144.343 106.457 144.441C106.315 144.539 106.2 144.679 106.108 144.859C105.891 145.272 105.782 145.781 105.782 146.383C105.782 146.951 105.89 147.443 106.108 147.86C106.198 148.037 106.315 148.175 106.457 148.275C106.598 148.374 106.749 148.425 106.908 148.425C107.067 148.425 107.219 148.376 107.363 148.275C107.506 148.174 107.623 148.037 107.713 147.86C107.927 147.443 108.035 146.942 108.035 146.358C108.035 145.762 107.928 145.262 107.713 144.86C107.513 144.482 107.244 144.293 106.908 144.293Z" fill="#4B4B4B"/>
<path d="M111.385 144.431H110.846C110.711 144.431 110.628 144.413 110.593 144.379C110.558 144.346 110.542 144.261 110.542 144.127V143.741C110.542 143.607 110.559 143.523 110.593 143.488C110.627 143.453 110.711 143.437 110.846 143.437H112.224C112.355 143.437 112.437 143.455 112.472 143.488C112.507 143.522 112.523 143.607 112.523 143.741V148.976C112.523 149.11 112.506 149.194 112.472 149.229C112.438 149.264 112.355 149.28 112.224 149.28H111.685C111.553 149.28 111.471 149.262 111.436 149.229C111.401 149.195 111.385 149.11 111.385 148.976V144.431Z" fill="#4B4B4B"/>
<path d="M117.134 147.139C116.889 147.236 116.66 147.286 116.445 147.286C115.966 147.286 115.552 147.115 115.203 146.771C114.82 146.394 114.629 145.921 114.629 145.35C114.629 144.697 114.874 144.168 115.365 143.766C115.76 143.443 116.258 143.282 116.863 143.282C117.551 143.282 118.097 143.49 118.502 143.903C118.876 144.286 119.063 144.746 119.063 145.285C119.063 145.873 118.819 146.494 118.331 147.147L116.734 149.283C116.651 149.394 116.578 149.449 116.512 149.449C116.475 149.449 116.408 149.414 116.31 149.343L115.989 149.099C115.914 149.042 115.868 149.001 115.85 148.978C115.833 148.954 115.822 148.921 115.822 148.881C115.822 148.842 115.859 148.773 115.933 148.675L117.134 147.139ZM116.852 144.191C116.55 144.191 116.294 144.298 116.087 144.512C115.875 144.726 115.77 144.987 115.77 145.296C115.77 145.586 115.875 145.839 116.087 146.054C116.296 146.267 116.55 146.375 116.852 146.375C117.155 146.375 117.409 146.27 117.614 146.058C117.823 145.845 117.926 145.585 117.926 145.279C117.926 144.968 117.824 144.71 117.618 144.505C117.405 144.295 117.149 144.191 116.852 144.191Z" fill="#4B4B4B"/>
<path d="M122.913 143.361L120.02 150.287C119.934 150.49 119.864 150.62 119.807 150.678C119.75 150.737 119.665 150.766 119.554 150.766C119.452 150.766 119.361 150.729 119.282 150.656C119.203 150.583 119.164 150.5 119.164 150.406C119.164 150.326 119.206 150.186 119.292 149.983L122.185 143.053C122.272 142.847 122.342 142.715 122.397 142.657C122.453 142.598 122.538 142.569 122.652 142.569C122.754 142.569 122.844 142.606 122.923 142.679C123.002 142.752 123.042 142.837 123.042 142.933C123.042 143.012 122.999 143.155 122.913 143.361Z" fill="#4B4B4B"/>
<path d="M125.404 144.431H124.865C124.731 144.431 124.647 144.413 124.612 144.379C124.577 144.346 124.561 144.261 124.561 144.127V143.741C124.561 143.607 124.579 143.523 124.612 143.488C124.646 143.453 124.731 143.437 124.865 143.437H126.243C126.374 143.437 126.456 143.455 126.491 143.488C126.526 143.522 126.542 143.607 126.542 143.741V148.976C126.542 149.11 126.525 149.194 126.491 149.229C126.458 149.264 126.374 149.28 126.243 149.28H125.704C125.572 149.28 125.49 149.262 125.455 149.229C125.42 149.195 125.404 149.11 125.404 148.976V144.431Z" fill="#4B4B4B"/>
<path d="M130.375 144.431H129.836C129.701 144.431 129.618 144.413 129.583 144.379C129.548 144.346 129.532 144.261 129.532 144.127V143.741C129.532 143.607 129.549 143.523 129.583 143.488C129.617 143.453 129.701 143.437 129.836 143.437H131.214C131.345 143.437 131.427 143.455 131.462 143.488C131.497 143.522 131.513 143.607 131.513 143.741V148.976C131.513 149.11 131.496 149.194 131.462 149.229C131.428 149.264 131.345 149.28 131.214 149.28H130.674C130.543 149.28 130.461 149.262 130.426 149.229C130.391 149.195 130.375 149.11 130.375 148.976V144.431Z" fill="#4B4B4B"/>
<path d="M136.932 143.361L134.039 150.287C133.953 150.49 133.883 150.62 133.826 150.678C133.769 150.737 133.684 150.766 133.573 150.766C133.471 150.766 133.38 150.729 133.301 150.656C133.222 150.583 133.183 150.5 133.183 150.406C133.183 150.326 133.225 150.186 133.312 149.983L136.205 143.053C136.291 142.847 136.361 142.715 136.416 142.657C136.472 142.598 136.557 142.569 136.671 142.569C136.773 142.569 136.864 142.606 136.942 142.679C137.021 142.752 137.061 142.837 137.061 142.933C137.061 143.012 137.017 143.155 136.932 143.361Z" fill="#4B4B4B"/>
<path d="M139.71 148.288H141.529C141.663 148.288 141.747 148.305 141.782 148.339C141.817 148.373 141.833 148.457 141.833 148.592V148.978C141.833 149.112 141.815 149.195 141.782 149.23C141.748 149.265 141.663 149.281 141.529 149.281H138.104C137.993 149.281 137.92 149.271 137.886 149.251C137.829 149.22 137.8 149.169 137.8 149.1C137.8 149.055 137.842 148.985 137.929 148.89L139.302 147.324C139.841 146.71 140.201 146.26 140.38 145.973C140.56 145.687 140.651 145.42 140.651 145.171C140.651 144.897 140.548 144.675 140.342 144.504C140.177 144.363 139.983 144.293 139.761 144.293C139.425 144.293 139.174 144.441 139.007 144.734C138.976 144.791 138.956 144.835 138.949 144.865C138.941 144.894 138.93 144.971 138.912 145.094C138.903 145.157 138.878 145.199 138.837 145.22C138.797 145.24 138.721 145.252 138.612 145.252H138.005C137.885 145.252 137.804 145.239 137.762 145.214C137.72 145.189 137.701 145.138 137.701 145.063C137.701 144.911 137.745 144.732 137.831 144.521C137.917 144.311 138.025 144.125 138.154 143.963C138.333 143.738 138.561 143.569 138.839 143.457C139.115 143.344 139.412 143.287 139.724 143.287C140.341 143.287 140.844 143.472 141.231 143.843C141.605 144.203 141.792 144.642 141.792 145.161C141.792 145.49 141.709 145.813 141.543 146.131C141.378 146.45 141.107 146.808 140.73 147.208L139.71 148.288Z" fill="#4B4B4B"/>
<path d="M67.7217 127.46C67.0057 127.797 66.6478 128.248 66.6375 128.933C66.6785 128.923 66.7194 128.923 66.7603 128.923C67.2717 128.923 67.691 129.27 67.691 129.823C67.691 130.426 67.2921 130.815 66.7603 130.815C65.9932 130.815 65.6046 130.232 65.6046 129.229C65.6046 128.104 66.1671 127.235 67.3228 126.662L67.7217 127.46ZM70.5854 127.46C69.8695 127.797 69.5115 128.248 69.5013 128.933C69.5422 128.923 69.5831 128.923 69.624 128.923C70.1354 128.923 70.5547 129.27 70.5547 129.823C70.5547 130.426 70.1558 130.815 69.624 130.815C68.8569 130.815 68.4683 130.232 68.4683 129.229C68.4683 128.104 69.0308 127.235 70.1865 126.662L70.5854 127.46Z" fill="#2A8E60"/>
<path d="M73.6435 128.575C74.3799 128.35 76.4765 127.634 77.9698 127.634C79.8823 127.634 81.3858 128.728 81.3858 130.702C81.3858 132.922 79.3301 134.558 75.5049 134.742L74.789 133.106C77.5811 133.054 79.6164 132.267 79.6164 130.671C79.6164 129.782 79.0334 129.117 77.8982 129.117C76.497 129.117 74.2162 130.068 73.0094 130.61L72.3241 128.892C72.6923 128.83 73.2855 128.677 73.6435 128.575Z" fill="#2A8E60"/>
<path d="M88.3611 128.769C87.9418 128.882 87.3281 129.015 86.6428 129.117C86.1724 130.538 85.3132 132.298 84.495 133.474L83.012 132.727C83.8098 131.735 84.5871 130.313 85.0269 129.26C84.9144 129.27 84.8019 129.27 84.6996 129.27C84.27 129.27 83.8609 129.26 83.3904 129.229L83.2779 127.818C83.7484 127.869 84.3518 127.89 84.6894 127.89C84.9553 127.89 85.211 127.879 85.4769 127.859C85.6201 127.307 85.7121 126.724 85.7326 126.202L87.4099 126.366C87.3383 126.683 87.2258 127.143 87.0826 127.654C87.5531 127.562 87.9827 127.46 88.3202 127.358L88.3611 128.769ZM89.7827 129.536C89.752 129.976 89.7725 130.457 89.7827 130.958C89.793 131.193 89.8134 131.592 89.8339 132.011C90.7134 132.349 91.4294 132.86 91.9305 133.331L91.1225 134.65C90.8055 134.353 90.3964 133.965 89.8952 133.617C89.8646 134.589 89.3327 135.315 87.8395 135.315C86.4997 135.315 85.4564 134.691 85.4564 133.515C85.4564 132.502 86.2542 131.633 87.819 131.633C88.0031 131.633 88.177 131.643 88.3509 131.664C88.3099 130.937 88.269 130.109 88.2384 129.536H89.7827ZM88.402 132.942C88.1872 132.901 87.952 132.87 87.7167 132.87C87.2156 132.87 86.9088 133.075 86.9088 133.361C86.9088 133.689 87.1849 133.914 87.6145 133.914C88.2179 133.914 88.402 133.556 88.402 132.993V132.942ZM91.3578 130.221C90.7544 129.751 89.5679 129.066 88.8622 128.759L89.6498 127.542C90.3759 127.859 91.6851 128.554 92.2271 128.933L91.3578 130.221Z" fill="#2A8E60"/>
<path d="M95.9296 126.938C95.8273 127.225 95.7045 127.634 95.6534 127.859C95.4489 128.79 95.0807 130.743 95.2852 131.766C95.4182 131.52 95.5818 131.101 95.7352 130.804L96.4819 131.285C96.1546 132.257 95.9091 133.269 95.7761 133.883C95.7352 134.047 95.7046 134.292 95.7046 134.394C95.7046 134.507 95.7148 134.701 95.725 134.865L94.3545 134.998C94.1193 134.384 93.7408 132.922 93.7408 131.674C93.7408 130.007 93.9147 128.565 94.0477 127.746C94.0988 127.44 94.109 127.061 94.1193 126.764L95.9296 126.938ZM100.818 126.754C100.777 127.01 100.767 127.276 100.757 127.501C100.747 127.716 100.747 128.176 100.747 128.677C101.34 128.636 101.882 128.575 102.291 128.513L102.281 130.109C101.872 130.14 101.34 130.181 100.747 130.211V130.538C100.747 132.962 100.46 134.323 98.5172 135.622L97.1057 134.507C97.5353 134.312 98.0978 133.955 98.4047 133.597C98.9979 132.87 99.2331 132.103 99.2331 130.528V130.262C98.916 130.273 98.5887 130.273 98.2819 130.273C97.8626 130.273 97.3001 130.242 96.758 130.221V128.667C97.2898 128.738 97.6989 128.769 98.241 128.769C98.5478 128.769 98.8751 128.759 99.2229 128.749C99.2126 128.258 99.1922 127.787 99.1717 127.501C99.1513 127.296 99.1001 126.949 99.049 126.754H100.818ZM101.34 128.043C101.197 127.593 101.033 127.01 100.829 126.58L101.637 126.335C101.831 126.754 102.056 127.388 102.158 127.777L101.34 128.043ZM102.71 125.997C102.905 126.417 103.14 127.061 103.253 127.44L102.445 127.695C102.301 127.255 102.107 126.672 101.903 126.253L102.71 125.997Z" fill="#2A8E60"/>
<path d="M111.782 127.675C111.516 127.838 111.261 127.992 111.005 128.166C110.432 128.554 109.543 129.28 108.99 129.71C109.256 129.659 109.451 129.649 109.696 129.649C111.435 129.649 112.805 130.763 112.805 132.287C112.805 133.873 111.66 135.253 109.041 135.253C107.61 135.253 106.423 134.589 106.423 133.474C106.423 132.584 107.241 131.756 108.387 131.756C109.624 131.756 110.422 132.472 110.596 133.433C110.995 133.157 111.189 132.758 111.189 132.267C111.189 131.398 110.299 130.856 109.185 130.856C107.702 130.856 106.638 131.745 105.666 132.932L104.551 131.776C105.206 131.265 106.382 130.262 106.986 129.771C107.548 129.301 108.489 128.575 108.98 128.135C108.469 128.145 107.425 128.186 106.883 128.227C106.577 128.247 106.219 128.278 105.973 128.319L105.922 126.734C106.239 126.775 106.617 126.795 106.955 126.795C107.497 126.795 109.522 126.764 110.126 126.713C110.606 126.672 110.893 126.632 111.026 126.591L111.782 127.675ZM109.185 133.842C109.133 133.279 108.827 132.922 108.397 132.922C108.07 132.922 107.875 133.116 107.875 133.32C107.875 133.637 108.213 133.862 108.724 133.862C108.888 133.862 109.041 133.852 109.185 133.842Z" fill="#2A8E60"/>
<path d="M118.062 133.791C118.062 134.732 117.305 135.499 116.354 135.499C115.413 135.499 114.646 134.732 114.646 133.791C114.646 132.85 115.413 132.083 116.354 132.083C117.305 132.083 118.062 132.85 118.062 133.791ZM117.203 133.791C117.203 133.32 116.825 132.942 116.354 132.942C115.894 132.942 115.505 133.32 115.505 133.791C115.505 134.261 115.894 134.64 116.354 134.64C116.825 134.64 117.203 134.261 117.203 133.791Z" fill="#2A8E60"/>
<path d="M120.742 129.853C121.458 129.505 121.805 129.066 121.816 128.37C121.785 128.38 121.744 128.38 121.713 128.38C121.192 128.38 120.773 128.033 120.773 127.48C120.773 126.877 121.161 126.499 121.713 126.499C122.46 126.499 122.859 127.082 122.859 128.084C122.859 129.209 122.296 130.078 121.13 130.641L120.742 129.853ZM123.606 129.853C124.321 129.505 124.669 129.066 124.679 128.37C124.649 128.38 124.608 128.38 124.577 128.38C124.056 128.38 123.636 128.033 123.636 127.48C123.636 126.877 124.025 126.499 124.577 126.499C125.324 126.499 125.723 127.082 125.723 128.084C125.723 129.209 125.16 130.078 123.994 130.641L123.606 129.853Z" fill="#2A8E60"/>
<path d="M33.0645 158.206C32.9915 158.156 32.9477 158.086 32.9301 157.994C32.9126 157.902 32.9316 157.821 32.9842 157.748C33.4517 157.094 33.6913 156.759 33.703 156.743C33.8711 156.504 33.9909 156.33 34.0654 156.225C34.1399 156.118 34.2246 156.004 34.3225 155.883C34.419 155.761 34.4891 155.682 34.5315 155.646C34.5738 155.609 34.6308 155.573 34.7053 155.535C34.7799 155.497 34.8427 155.476 34.8938 155.472C34.945 155.468 35.0209 155.466 35.1188 155.466C35.2971 155.466 35.4403 155.49 35.5469 155.535C35.6536 155.58 35.7661 155.659 35.883 155.769C36.0013 155.88 36.2176 156.105 36.5332 156.448C37.29 157.262 37.8452 157.851 38.2003 158.212C38.2646 158.276 38.2967 158.355 38.2967 158.448C38.2967 158.542 38.2646 158.622 38.2003 158.691L37.9665 158.93C37.9022 158.995 37.8248 159.027 37.7357 159.027C37.6465 159.027 37.5691 158.996 37.5048 158.936C36.9525 158.365 36.3944 157.765 35.8275 157.133C35.5878 156.863 35.4242 156.688 35.3365 156.606C35.2489 156.524 35.1773 156.483 35.1203 156.483C35.075 156.483 35.0151 156.53 34.9435 156.623C34.8705 156.717 34.7419 156.902 34.5549 157.18C34.3182 157.538 34.0566 157.909 33.7673 158.293C33.7133 158.366 33.6417 158.41 33.5511 158.428C33.4605 158.445 33.3772 158.426 33.3056 158.374L33.0645 158.206ZM36.5288 154.867C36.6121 154.825 36.6968 154.817 36.783 154.844C36.8692 154.87 36.935 154.926 36.9803 155.009C37.0519 155.139 37.1308 155.286 37.214 155.455C37.2564 155.538 37.2623 155.623 37.2316 155.706C37.2009 155.789 37.1454 155.85 37.0665 155.888L37.0095 155.918C36.9262 155.96 36.84 155.966 36.7523 155.938C36.6647 155.909 36.6004 155.855 36.558 155.776C36.5346 155.726 36.4966 155.652 36.4411 155.554C36.3856 155.455 36.3476 155.383 36.3242 155.338C36.2819 155.262 36.2731 155.18 36.2979 155.092C36.3228 155.005 36.3754 154.94 36.4543 154.898L36.5288 154.867ZM38.0016 154.775C38.1112 154.977 38.193 155.132 38.247 155.237C38.2894 155.32 38.2953 155.405 38.2675 155.488C38.2383 155.571 38.1827 155.633 38.0995 155.671L38.025 155.716C37.9417 155.754 37.8555 155.758 37.7678 155.731C37.6801 155.701 37.6158 155.646 37.5735 155.563L37.328 155.107C37.2856 155.031 37.2783 154.95 37.3046 154.864C37.3309 154.778 37.3865 154.712 37.4697 154.667L37.5501 154.633C37.6334 154.591 37.7196 154.584 37.8072 154.61C37.8949 154.636 37.9592 154.692 38.0016 154.775Z" fill="#4B4B4B"/>
<path d="M39.0974 159.25L38.944 159.005C38.8987 158.933 38.8855 158.853 38.9075 158.768C38.9279 158.682 38.9761 158.615 39.0536 158.565C39.2172 158.463 39.3443 158.356 39.4335 158.248C39.5226 158.14 39.5956 157.984 39.6497 157.781C39.7052 157.577 39.7403 157.344 39.7549 157.079C39.7695 156.815 39.7783 156.447 39.7783 155.975V155.095C39.7783 155.004 39.8119 154.926 39.8776 154.861C39.9448 154.797 40.0208 154.765 40.1085 154.765H40.4051C40.4957 154.765 40.5746 154.798 40.6389 154.864C40.7031 154.931 40.7353 155.007 40.7353 155.095V155.975C40.7353 156.701 40.6988 157.278 40.6272 157.705C40.5541 158.131 40.4372 158.47 40.2765 158.723C40.1143 158.976 39.882 159.192 39.5766 159.37C39.4934 159.416 39.4057 159.426 39.3136 159.401C39.2231 159.376 39.15 159.326 39.0974 159.25ZM41.6777 159.451C41.5871 159.455 41.5097 159.423 41.4468 159.357C41.384 159.29 41.3533 159.214 41.3533 159.126V155.097C41.3533 155.006 41.384 154.927 41.4468 154.863C41.5097 154.798 41.5871 154.766 41.6777 154.766H41.9918C42.0824 154.766 42.1613 154.8 42.2256 154.866C42.2899 154.933 42.322 155.009 42.322 155.097V158.413C42.322 158.44 42.3396 158.45 42.3732 158.442C42.6362 158.348 42.8378 158.185 42.981 157.957C43.1242 157.729 43.2294 157.404 43.298 156.981C43.3127 156.891 43.3565 156.816 43.4266 156.762C43.4968 156.707 43.5757 156.685 43.6633 156.696L43.9029 156.73C43.9935 156.742 44.068 156.784 44.125 156.859C44.182 156.933 44.2054 157.014 44.1937 157.101C44.0797 157.886 43.8182 158.466 43.4091 158.844C43 159.221 42.4228 159.423 41.6777 159.451Z" fill="#4B4B4B"/>
<path d="M45.0674 156.431C44.9768 156.431 44.8979 156.398 44.8336 156.334C44.7694 156.27 44.7372 156.191 44.7372 156.1V155.912C44.7372 155.821 44.7694 155.742 44.8336 155.678C44.8979 155.614 44.9768 155.582 45.0674 155.582H45.6036C45.6343 155.582 45.6489 155.567 45.6489 155.536V154.949C45.6489 154.858 45.6825 154.779 45.7483 154.715C45.8155 154.651 45.8944 154.619 45.985 154.619H46.2421C46.3327 154.619 46.4116 154.652 46.4759 154.718C46.5402 154.785 46.5723 154.861 46.5723 154.949V155.536C46.5723 155.567 46.587 155.582 46.6176 155.582H47.9253C47.9589 155.582 47.9765 155.567 47.9765 155.536V154.949C47.9765 154.858 48.0101 154.779 48.0758 154.715C48.143 154.651 48.219 154.619 48.3067 154.619H48.6091C48.6997 154.619 48.7801 154.652 48.8458 154.718C48.913 154.785 48.9452 154.861 48.9452 154.949V155.536C48.9452 155.567 48.9598 155.582 48.9905 155.582H49.5311C49.6216 155.582 49.7005 155.615 49.7648 155.681C49.8291 155.748 49.8613 155.824 49.8613 155.912V156.1C49.8613 156.191 49.8291 156.27 49.7648 156.334C49.7005 156.398 49.6216 156.431 49.5311 156.431H48.9948C48.9642 156.431 48.9495 156.448 48.9495 156.482V156.745C48.9495 157.613 48.7508 158.257 48.3534 158.679C47.956 159.101 47.2912 159.372 46.359 159.49C46.2641 159.502 46.1779 159.48 46.1019 159.427C46.0259 159.373 45.9762 159.3 45.9528 159.205L45.9134 159.005C45.8988 158.917 45.9163 158.838 45.9675 158.768C46.0186 158.698 46.0887 158.657 46.1764 158.646C46.8806 158.551 47.357 158.369 47.6068 158.103C47.8566 157.838 47.9808 157.385 47.9808 156.745V156.482C47.9808 156.448 47.9633 156.431 47.9297 156.431H46.622C46.5913 156.431 46.5767 156.448 46.5767 156.482V157.218C46.5767 157.309 46.5431 157.388 46.4774 157.452C46.4102 157.516 46.3342 157.548 46.2465 157.548H45.9894C45.8988 157.548 45.8184 157.515 45.7527 157.449C45.6855 157.382 45.6533 157.306 45.6533 157.218V156.482C45.6533 156.448 45.6387 156.431 45.608 156.431H45.0674Z" fill="#4B4B4B"/>
<path d="M51.0375 157.583C50.9469 157.583 50.868 157.55 50.8037 157.484C50.7394 157.417 50.7072 157.341 50.7072 157.253V156.974C50.7072 156.883 50.7409 156.803 50.8066 156.737C50.8738 156.67 50.9498 156.638 51.0375 156.638H55.2498C55.3404 156.638 55.4193 156.672 55.4835 156.737C55.5478 156.805 55.58 156.883 55.58 156.974V157.253C55.58 157.344 55.5464 157.423 55.4806 157.487C55.4134 157.551 55.3374 157.583 55.2498 157.583H51.0375Z" fill="#4B4B4B"/>
<path d="M56.6305 159.25L56.4771 159.005C56.4318 158.933 56.4187 158.853 56.4406 158.768C56.461 158.682 56.5092 158.615 56.5867 158.565C56.7503 158.463 56.8774 158.356 56.9666 158.248C57.0557 158.14 57.1287 157.984 57.1828 157.781C57.2383 157.577 57.2734 157.344 57.288 157.079C57.3026 156.815 57.3114 156.447 57.3114 155.975V155.095C57.3114 155.004 57.345 154.926 57.4107 154.861C57.4779 154.797 57.5539 154.765 57.6416 154.765H57.9382C58.0288 154.765 58.1077 154.798 58.172 154.864C58.2363 154.931 58.2684 155.007 58.2684 155.095V155.975C58.2684 156.701 58.2319 157.278 58.1603 157.705C58.0872 158.131 57.9703 158.47 57.8096 158.723C57.6474 158.976 57.4151 159.192 57.1097 159.37C57.0265 159.416 56.9388 159.426 56.8468 159.401C56.7562 159.376 56.6831 159.326 56.6305 159.25ZM59.2108 159.451C59.1202 159.455 59.0428 159.423 58.98 159.357C58.9171 159.29 58.8864 159.214 58.8864 159.126V155.097C58.8864 155.006 58.9171 154.927 58.98 154.863C59.0428 154.798 59.1202 154.766 59.2108 154.766H59.5249C59.6155 154.766 59.6944 154.8 59.7587 154.866C59.823 154.933 59.8551 155.009 59.8551 155.097V158.413C59.8551 158.44 59.8727 158.45 59.9063 158.442C60.1693 158.348 60.3709 158.185 60.5141 157.957C60.6573 157.729 60.7625 157.404 60.8312 156.981C60.8458 156.891 60.8896 156.816 60.9597 156.762C61.0299 156.707 61.1088 156.685 61.1964 156.696L61.4361 156.73C61.5266 156.742 61.6012 156.784 61.6581 156.859C61.7151 156.933 61.7385 157.014 61.7268 157.101C61.6128 157.886 61.3513 158.466 60.9422 158.844C60.5331 159.221 59.956 159.423 59.2108 159.451Z" fill="#4B4B4B"/>
<path d="M62.2981 159.331L62.2016 159.193C62.152 159.117 62.1344 159.031 62.1476 158.936C62.1607 158.841 62.2002 158.761 62.2645 158.697C62.4661 158.499 62.6414 158.286 62.789 158.057C62.808 158.026 62.8022 158.011 62.7715 158.011H62.5085C62.4179 158.011 62.3404 157.978 62.2776 157.912C62.2148 157.845 62.1841 157.769 62.1841 157.681V157.607C62.1841 157.516 62.2163 157.437 62.2805 157.373C62.3448 157.309 62.4208 157.277 62.5085 157.277H63.0111C63.0447 157.277 63.0622 157.262 63.0622 157.231V157.072C63.0622 157.038 63.0447 157.021 63.0111 157.021H62.5085C62.4179 157.021 62.3404 156.987 62.2776 156.921C62.2148 156.854 62.1841 156.778 62.1841 156.691V156.639C62.1841 156.549 62.2163 156.47 62.2805 156.406C62.3448 156.341 62.4208 156.309 62.5085 156.309H62.5991C62.6297 156.309 62.6414 156.296 62.6327 156.27C62.5786 156.045 62.5362 155.875 62.5012 155.761C62.4939 155.731 62.4895 155.704 62.4895 155.681C62.4895 155.65 62.4749 155.631 62.4442 155.624C62.2878 155.579 62.2104 155.474 62.2104 155.31V155.235C62.2104 155.145 62.2426 155.066 62.3068 155.002C62.3711 154.937 62.45 154.905 62.5406 154.905H63.0082C63.0418 154.905 63.0593 154.888 63.0593 154.854V154.689C63.0593 154.598 63.0915 154.519 63.1557 154.455C63.22 154.391 63.296 154.359 63.3837 154.359H63.6116C63.7022 154.359 63.7796 154.392 63.8425 154.458C63.9053 154.525 63.936 154.601 63.936 154.689V154.854C63.936 154.888 63.955 154.905 63.9929 154.905H64.6037C64.6943 154.905 64.7732 154.937 64.8375 155.002C64.9018 155.066 64.9339 155.145 64.9339 155.235V155.31C64.9339 155.379 64.9149 155.441 64.8769 155.498C64.8389 155.555 64.7878 155.595 64.7235 155.618C64.6928 155.63 64.6753 155.65 64.6724 155.681C64.6724 155.688 64.668 155.706 64.6607 155.732C64.6066 155.926 64.5496 156.105 64.4897 156.268C64.4824 156.295 64.4941 156.308 64.5233 156.308H64.5803C64.6709 156.308 64.7498 156.341 64.8141 156.407C64.8784 156.474 64.9105 156.55 64.9105 156.638V156.689C64.9105 156.78 64.8784 156.859 64.8141 156.923C64.7498 156.987 64.6709 157.019 64.5803 157.019H63.9929C63.9593 157.019 63.9389 157.037 63.936 157.07V157.23C63.936 157.26 63.955 157.275 63.9929 157.275H64.5073C64.5978 157.275 64.6767 157.309 64.741 157.374C64.8053 157.442 64.8375 157.518 64.8375 157.605V157.68C64.8375 157.77 64.8039 157.849 64.7381 157.914C64.6709 157.978 64.5949 158.01 64.5073 158.01H63.9929C63.9593 158.01 63.9389 158.028 63.936 158.061V158.073C63.936 158.106 63.9535 158.127 63.9871 158.13C64.0558 158.13 64.1157 158.153 64.1697 158.198C64.2603 158.274 64.4006 158.399 64.5862 158.57C64.5935 158.574 64.611 158.596 64.6373 158.638C64.6519 158.662 64.668 158.662 64.6826 158.638C64.8579 158.285 64.9792 157.858 65.0479 157.357C65.1165 156.857 65.1531 156.119 65.156 155.145C65.156 155.05 65.1881 154.968 65.2524 154.899C65.3167 154.831 65.3971 154.793 65.492 154.785C66.0633 154.724 66.5616 154.633 66.9867 154.511C67.0773 154.487 67.1621 154.496 67.241 154.537C67.3184 154.576 67.371 154.641 67.3973 154.728L67.4426 154.888C67.4689 154.978 67.4601 155.066 67.4134 155.148C67.3681 155.23 67.3009 155.282 67.2132 155.304C66.8786 155.395 66.4885 155.472 66.0429 155.532C66.0093 155.539 65.9917 155.558 65.9917 155.589C65.9844 155.802 65.9786 155.986 65.9742 156.143C65.9742 156.176 65.9888 156.197 66.0195 156.2H67.2293C67.3199 156.2 67.3973 156.23 67.4601 156.293C67.523 156.356 67.5536 156.433 67.5536 156.524V156.673C67.5536 156.764 67.5215 156.843 67.4572 156.907C67.3929 156.971 67.3169 157.003 67.2293 157.003H67.1957C67.165 157.003 67.1504 157.021 67.1504 157.054V159.429C67.1504 159.519 67.1168 159.598 67.051 159.662C66.9838 159.727 66.9049 159.759 66.8143 159.759H66.6142C66.5236 159.759 66.4447 159.725 66.3804 159.66C66.3161 159.592 66.2839 159.516 66.2839 159.429V157.054C66.2839 157.021 66.2693 157.003 66.2387 157.003H65.9698C65.9362 157.003 65.9157 157.018 65.9128 157.049C65.8588 157.611 65.7755 158.083 65.6615 158.464C65.5476 158.844 65.3927 159.191 65.1998 159.503C65.1545 159.575 65.0888 159.616 65.0026 159.623C64.9164 159.63 64.8433 159.603 64.7834 159.537L64.6241 159.378C64.5745 159.324 64.5423 159.265 64.5277 159.201C64.5204 159.174 64.5014 159.169 64.4707 159.183C64.4167 159.214 64.3568 159.223 64.2881 159.212C64.2194 159.202 64.1639 159.17 64.123 159.122C64.0616 159.053 64.0105 158.998 63.9696 158.957C63.9623 158.949 63.955 158.948 63.9462 158.951C63.9389 158.955 63.9345 158.961 63.9345 158.968V159.487C63.9345 159.578 63.9038 159.655 63.841 159.718C63.7782 159.781 63.7007 159.812 63.6101 159.812H63.3822C63.2916 159.812 63.2142 159.781 63.1514 159.718C63.0885 159.655 63.0578 159.578 63.0578 159.487V158.894C63.0578 158.887 63.0535 158.882 63.0462 158.879C63.0389 158.878 63.033 158.878 63.0286 158.882C62.9074 159.077 62.7919 159.236 62.6867 159.361C62.6327 159.423 62.5655 159.449 62.4836 159.442C62.4077 159.436 62.3434 159.398 62.2981 159.331ZM63.3106 155.891C63.3355 155.988 63.353 156.061 63.3647 156.108C63.3764 156.156 63.3734 156.206 63.3588 156.26C63.3515 156.29 63.3632 156.305 63.3924 156.305H63.6437C63.6774 156.305 63.7007 156.292 63.7124 156.265C63.784 156.071 63.8498 155.875 63.9067 155.678C63.9141 155.652 63.9024 155.639 63.8731 155.639H63.296C63.2624 155.639 63.2478 155.652 63.2566 155.678C63.2682 155.723 63.2858 155.795 63.3106 155.891Z" fill="#4B4B4B"/>
<path d="M68.0051 158.257L67.9087 157.966C67.84 157.76 67.8824 157.577 68.0344 157.418C68.4449 156.984 68.7649 156.504 68.9928 155.975C69.0264 155.887 69.0863 155.826 69.1696 155.792C69.2529 155.758 69.3391 155.756 69.4268 155.786L69.5919 155.843C69.6226 155.858 69.6445 155.872 69.6605 155.883C69.6839 155.897 69.7029 155.894 69.7175 155.871C69.7818 155.772 69.8739 155.725 69.9922 155.728H72.3723C72.403 155.728 72.4176 155.71 72.4176 155.677V155.517C72.4176 155.484 72.403 155.466 72.3723 155.466H68.9826C68.9519 155.466 68.9373 155.484 68.9373 155.517V155.963C68.9373 156.054 68.9037 156.132 68.838 156.197C68.7707 156.261 68.6918 156.293 68.6013 156.293H68.3558C68.2652 156.293 68.1878 156.26 68.1249 156.194C68.0621 156.127 68.0314 156.051 68.0314 155.963V155.083C68.0314 154.993 68.0636 154.915 68.1279 154.853C68.1921 154.79 68.2681 154.759 68.3558 154.759H70.1529C70.1836 154.759 70.1982 154.74 70.1982 154.702V154.588C70.1982 154.498 70.2318 154.42 70.2976 154.357C70.3648 154.294 70.4408 154.264 70.5284 154.264H70.825C70.9156 154.264 70.9945 154.294 71.0588 154.357C71.1231 154.42 71.1552 154.498 71.1552 154.588V154.702C71.1552 154.736 71.1699 154.756 71.2005 154.759H72.9977C73.0883 154.759 73.1657 154.79 73.2285 154.853C73.2914 154.915 73.322 154.993 73.322 155.083V155.826C73.322 155.944 73.2724 156.035 73.173 156.1C73.154 156.115 73.1409 156.143 73.1336 156.181C73.1219 156.264 73.0853 156.333 73.0254 156.387C72.9641 156.441 72.8925 156.467 72.8092 156.467H71.8902C71.8566 156.467 71.8347 156.482 71.8273 156.512C71.823 156.531 71.8157 156.563 71.804 156.606C71.7923 156.65 71.785 156.683 71.7806 156.705C71.7733 156.739 71.785 156.756 71.8142 156.756H72.7668C72.8574 156.756 72.9363 156.79 73.0006 156.856C73.0649 156.923 73.097 156.999 73.097 157.087V159.392C73.097 159.483 73.0634 159.562 72.9977 159.626C72.9305 159.69 72.8545 159.722 72.7668 159.722H72.3387C72.2934 159.722 72.2525 159.706 72.2189 159.674C72.1853 159.642 72.1678 159.601 72.1678 159.551C72.1678 159.532 72.1576 159.522 72.1386 159.522H70.6658C70.6512 159.522 70.6424 159.531 70.6424 159.551C70.6424 159.597 70.6249 159.638 70.5913 159.671C70.5577 159.705 70.5167 159.722 70.4715 159.722H70.0726C69.982 159.722 69.9016 159.689 69.8359 159.623C69.7687 159.556 69.7365 159.48 69.7365 159.392V157.087C69.7365 156.996 69.7701 156.917 69.8359 156.853C69.9031 156.789 69.982 156.756 70.0726 156.756H70.7578C70.7914 156.756 70.8148 156.742 70.8265 156.711C70.8499 156.623 70.8659 156.558 70.8776 156.511C70.8849 156.48 70.8733 156.466 70.844 156.466H69.9878C69.9119 156.466 69.8417 156.439 69.776 156.385C69.757 156.366 69.7394 156.371 69.7248 156.397C69.6226 156.625 69.5086 156.84 69.3829 157.041C69.3639 157.072 69.3537 157.104 69.3537 157.138V159.449C69.3537 159.54 69.3201 159.619 69.2544 159.683C69.1872 159.747 69.1083 159.779 69.0177 159.779H68.7956C68.705 159.779 68.6261 159.747 68.5618 159.683C68.4975 159.619 68.4654 159.54 68.4654 159.449V158.177C68.4654 158.169 68.4624 158.163 68.4566 158.159C68.4508 158.155 68.4464 158.158 68.442 158.165C68.4274 158.179 68.4069 158.204 68.3821 158.239C68.3572 158.273 68.3368 158.301 68.3222 158.32C68.2769 158.377 68.217 158.397 68.1454 158.383C68.0753 158.368 68.0285 158.326 68.0051 158.257ZM72.1196 157.487H70.6979C70.6643 157.487 70.6468 157.504 70.6468 157.538V157.76C70.6468 157.791 70.6643 157.805 70.6979 157.805H72.1196C72.1532 157.805 72.1707 157.791 72.1707 157.76V157.538C72.1722 157.504 72.1546 157.487 72.1196 157.487ZM72.1722 158.771V158.543C72.1722 158.513 72.1546 158.498 72.121 158.498H70.6994C70.6658 158.498 70.6482 158.513 70.6482 158.543V158.771C70.6482 158.802 70.6658 158.816 70.6994 158.816H72.121C72.1546 158.816 72.1722 158.802 72.1722 158.771Z" fill="#4B4B4B"/>
<path d="M74.3112 157.493L74.1461 157.35C74.0818 157.293 74.0467 157.218 74.0409 157.127C74.0351 157.037 74.0614 156.957 74.1183 156.888C74.602 156.317 74.919 155.687 75.071 154.999C75.09 154.904 75.1353 154.826 75.2083 154.768C75.2799 154.709 75.3646 154.682 75.4596 154.685L75.7226 154.696C75.8132 154.704 75.8877 154.742 75.9447 154.81C76.0017 154.879 76.0221 154.956 76.0075 155.044C76.0031 155.063 75.9973 155.092 75.99 155.133C75.9827 155.173 75.9768 155.205 75.9725 155.227C75.9652 155.257 75.9783 155.272 76.0119 155.272H77.7185C77.7302 155.272 77.7389 155.266 77.7448 155.254C77.7506 155.243 77.7491 155.234 77.7418 155.225C77.7272 155.199 77.7039 155.154 77.6732 155.091C77.6425 155.028 77.6176 154.983 77.5987 154.956C77.5607 154.885 77.5548 154.807 77.5811 154.725C77.6074 154.644 77.6571 154.584 77.7302 154.546C77.8061 154.508 77.8836 154.502 77.9639 154.528C78.0443 154.554 78.1071 154.606 78.1524 154.682C78.1714 154.715 78.1977 154.768 78.2328 154.835C78.2678 154.902 78.2941 154.956 78.3131 154.994C78.3584 155.082 78.357 155.173 78.3073 155.269C78.2927 155.3 78.2971 155.324 78.3248 155.343C78.4081 155.405 78.4505 155.488 78.4505 155.595C78.4198 156.85 78.1173 157.786 77.5431 158.403C76.9689 159.02 76.0674 159.398 74.8372 159.538C74.7422 159.55 74.6589 159.528 74.5859 159.473C74.5128 159.417 74.4661 159.343 74.4427 159.248L74.4135 159.053C74.3989 158.963 74.4179 158.881 74.4734 158.811C74.5289 158.741 74.6005 158.7 74.6867 158.688C75.5926 158.562 76.2515 158.311 76.665 157.934C77.0785 157.557 77.3283 156.968 77.416 156.165C77.416 156.131 77.4029 156.113 77.3766 156.113H75.7387C75.7051 156.113 75.6802 156.128 75.6642 156.159C75.4508 156.631 75.1616 157.066 74.7963 157.466C74.7349 157.535 74.656 157.572 74.5596 157.575C74.4632 157.582 74.3799 157.553 74.3112 157.493ZM78.6492 155.193C78.6156 155.124 78.5586 155.021 78.4782 154.879C78.4402 154.803 78.4329 154.725 78.4578 154.645C78.4826 154.565 78.5338 154.505 78.6112 154.465C78.6886 154.426 78.7705 154.42 78.8567 154.448C78.9429 154.476 79.0042 154.527 79.0422 154.6C79.0612 154.638 79.0904 154.693 79.1284 154.768C79.1664 154.842 79.1927 154.895 79.2088 154.924C79.2468 155 79.2526 155.078 79.2263 155.158C79.2 155.238 79.1474 155.297 79.07 155.335C78.9925 155.373 78.9136 155.377 78.8333 155.349C78.7529 155.322 78.6915 155.269 78.6492 155.193Z" fill="#4B4B4B"/>
<path d="M80.3339 157.206C80.2433 157.206 80.1629 157.173 80.0972 157.107C80.0299 157.04 79.9978 156.961 79.9978 156.87V156.694C79.9978 156.603 80.0314 156.523 80.0972 156.457C80.1644 156.39 80.2433 156.357 80.3339 156.357H84.3226C84.4176 156.357 84.4965 156.39 84.5593 156.454C84.6222 156.518 84.6514 156.599 84.6485 156.694C84.6148 157.554 84.3226 158.216 83.7718 158.682C83.2224 159.148 82.394 159.424 81.2865 159.512C81.1915 159.519 81.1068 159.494 81.0322 159.437C80.9577 159.38 80.911 159.304 80.892 159.21L80.8584 159.015C80.8438 158.928 80.8628 158.85 80.9154 158.781C80.968 158.713 81.041 158.675 81.1316 158.667C81.8315 158.61 82.3838 158.467 82.787 158.239C83.1903 158.011 83.4562 157.68 83.5862 157.246C83.5935 157.22 83.5819 157.206 83.5526 157.206H80.3339ZM80.7444 154.822H83.9866C84.0772 154.822 84.1546 154.855 84.2174 154.921C84.2803 154.988 84.3109 155.064 84.3109 155.152V155.341C84.3109 155.431 84.2788 155.509 84.2145 155.571C84.1502 155.634 84.0742 155.665 83.9866 155.665H80.7444C80.6538 155.665 80.5764 155.634 80.5136 155.571C80.4507 155.509 80.4201 155.431 80.4201 155.341V155.152C80.4201 155.061 80.4507 154.983 80.5136 154.918C80.5764 154.854 80.6524 154.822 80.7444 154.822Z" fill="#4B4B4B"/>
<path d="M86.2805 155.763C86.1972 155.725 86.1417 155.663 86.1154 155.577C86.0891 155.491 86.0979 155.409 86.1446 155.329L86.2761 155.066C86.3185 154.983 86.3828 154.926 86.4705 154.898C86.5581 154.869 86.6458 154.874 86.7334 154.912C87.1323 155.102 87.5444 155.308 87.9666 155.529C88.0499 155.567 88.1039 155.631 88.1288 155.72C88.1536 155.81 88.1449 155.894 88.1025 155.975L87.9491 156.238C87.9067 156.314 87.8424 156.366 87.7547 156.394C87.6671 156.423 87.5809 156.414 87.4976 156.368C87.0885 156.159 86.6838 155.957 86.2805 155.763ZM90.43 155.478C90.5206 155.497 90.5922 155.545 90.6419 155.621C90.6915 155.697 90.7062 155.779 90.6872 155.867C90.4592 156.891 90.0077 157.687 89.3342 158.258C88.6606 158.83 87.7431 159.185 86.583 159.325C86.488 159.337 86.4047 159.315 86.3316 159.259C86.2586 159.204 86.2162 159.129 86.2001 159.034L86.1607 158.765C86.1461 158.678 86.1651 158.599 86.2177 158.529C86.2703 158.459 86.3433 158.418 86.4339 158.406C87.3851 158.273 88.1259 157.991 88.6562 157.558C89.1866 157.126 89.5607 156.496 89.7784 155.666C89.8017 155.576 89.8514 155.506 89.9303 155.457C90.0078 155.409 90.091 155.396 90.1787 155.415L90.43 155.478Z" fill="#4B4B4B"/>
<path d="M92.5924 159.61C92.5018 159.61 92.4229 159.576 92.3586 159.511C92.2943 159.443 92.2622 159.364 92.2622 159.274V155.067C92.2622 154.977 92.2943 154.898 92.3586 154.834C92.4229 154.769 92.5018 154.737 92.5924 154.737H92.9241C93.0147 154.737 93.0936 154.769 93.1579 154.834C93.2222 154.898 93.2543 154.977 93.2543 155.067V156.295C93.2543 156.328 93.2718 156.35 93.3054 156.357C94.223 156.582 95.1464 156.86 96.0786 157.19C96.1663 157.217 96.2306 157.272 96.2729 157.355C96.3153 157.439 96.3212 157.525 96.2905 157.613L96.1999 157.881C96.1692 157.969 96.1151 158.032 96.0377 158.07C95.9603 158.108 95.877 158.112 95.7893 158.082C94.9901 157.797 94.1602 157.544 93.301 157.322C93.2704 157.314 93.2558 157.328 93.2558 157.361V159.274C93.2558 159.364 93.2236 159.445 93.1593 159.511C93.095 159.578 93.0161 159.61 92.9255 159.61H92.5924ZM94.4875 154.987C94.5707 154.945 94.657 154.937 94.7446 154.964C94.8323 154.99 94.898 155.044 94.9448 155.123C95.0164 155.253 95.0953 155.4 95.1786 155.568C95.2209 155.652 95.2268 155.737 95.199 155.823C95.1713 155.909 95.1143 155.97 95.031 156.008L94.974 156.037C94.8907 156.08 94.8045 156.086 94.7169 156.058C94.6292 156.029 94.5649 155.973 94.5225 155.89C94.4992 155.84 94.4612 155.767 94.4056 155.671C94.3501 155.574 94.3121 155.503 94.2888 155.457C94.2464 155.381 94.2376 155.298 94.2625 155.209C94.2873 155.12 94.3414 155.056 94.4246 155.018L94.4875 154.987ZM95.9661 154.891C96.0757 155.092 96.1575 155.247 96.2116 155.352C96.2539 155.436 96.2598 155.52 96.232 155.606C96.2043 155.693 96.1473 155.754 96.064 155.792L95.9895 155.831C95.9062 155.869 95.82 155.874 95.7323 155.846C95.6447 155.817 95.5804 155.761 95.538 155.678L95.2925 155.227C95.2502 155.151 95.2429 155.069 95.2692 154.981C95.2955 154.893 95.351 154.829 95.4343 154.787L95.5088 154.753C95.5921 154.711 95.6797 154.704 95.7689 154.727C95.858 154.752 95.9237 154.806 95.9661 154.891Z" fill="#4B4B4B"/>
<path d="M98.0437 159.227C97.9531 159.227 97.8757 159.193 97.8129 159.128C97.75 159.06 97.7194 158.985 97.7194 158.897V158.708C97.7194 158.618 97.7515 158.54 97.8158 158.478C97.8801 158.415 97.9561 158.384 98.0437 158.384H100.983C101.017 158.384 101.036 158.365 101.04 158.327V155.896C101.04 155.862 101.021 155.845 100.983 155.845H98.0437C97.9531 155.845 97.8757 155.812 97.8129 155.748C97.75 155.684 97.7194 155.608 97.7194 155.52V155.332C97.7194 155.241 97.7515 155.162 97.8158 155.098C97.8801 155.034 97.9561 155.002 98.0437 155.002H101.651C101.742 155.002 101.822 155.034 101.888 155.098C101.955 155.162 101.987 155.241 101.987 155.332V158.898C101.987 158.989 101.954 159.068 101.888 159.132C101.821 159.196 101.742 159.229 101.651 159.229H98.0437V159.227Z" fill="#4B4B4B"/>
<path d="M103.814 155.763C103.73 155.725 103.675 155.663 103.648 155.577C103.622 155.491 103.631 155.409 103.678 155.329L103.809 155.066C103.852 154.983 103.916 154.926 104.004 154.898C104.091 154.869 104.179 154.874 104.267 154.912C104.665 155.102 105.077 155.308 105.5 155.529C105.583 155.567 105.637 155.631 105.662 155.72C105.687 155.81 105.678 155.894 105.636 155.975L105.482 156.238C105.44 156.314 105.376 156.366 105.288 156.394C105.2 156.423 105.114 156.414 105.031 156.368C104.622 156.159 104.217 155.957 103.814 155.763ZM107.963 155.478C108.054 155.497 108.125 155.545 108.175 155.621C108.225 155.697 108.239 155.779 108.22 155.867C107.992 156.891 107.541 157.687 106.867 158.258C106.194 158.83 105.278 159.185 104.116 159.325C104.021 159.337 103.938 159.315 103.865 159.259C103.792 159.204 103.749 159.129 103.733 159.034L103.694 158.765C103.679 158.678 103.698 158.599 103.751 158.529C103.803 158.459 103.876 158.418 103.967 158.406C104.918 158.273 105.659 157.991 106.189 157.558C106.72 157.126 107.094 156.496 107.31 155.666C107.333 155.576 107.383 155.506 107.462 155.457C107.539 155.409 107.623 155.396 107.71 155.415L107.963 155.478Z" fill="#4B4B4B"/>
<path d="M109.67 155.883C109.579 155.883 109.5 155.85 109.436 155.786C109.372 155.722 109.339 155.643 109.339 155.552V155.319C109.339 155.228 109.373 155.151 109.439 155.088C109.506 155.025 109.582 154.994 109.67 154.994H113.556C113.647 154.994 113.726 155.025 113.79 155.088C113.854 155.151 113.885 155.228 113.881 155.319C113.857 156.59 113.555 157.556 112.973 158.215C112.392 158.875 111.502 159.281 110.308 159.433C110.213 159.445 110.126 159.423 110.045 159.367C109.965 159.312 109.918 159.239 109.902 159.148L109.863 158.926C109.848 158.838 109.864 158.758 109.914 158.686C109.963 158.615 110.033 158.572 110.126 158.561C110.993 158.447 111.642 158.187 112.072 157.779C112.501 157.371 112.76 156.758 112.848 155.935C112.848 155.905 112.834 155.887 112.808 155.884H109.67V155.883Z" fill="#4B4B4B"/>
<path d="M115.93 156.55C115.84 156.55 115.761 156.517 115.697 156.451C115.632 156.384 115.6 156.308 115.6 156.22V156.157C115.6 156.067 115.632 155.988 115.697 155.924C115.761 155.859 115.84 155.827 115.93 155.827H119.116C119.206 155.827 119.284 155.861 119.347 155.926C119.409 155.994 119.44 156.07 119.44 156.157V156.22C119.44 156.483 119.402 156.694 119.326 156.854C119.139 157.246 118.86 157.595 118.487 157.899C118.414 157.956 118.333 157.979 118.239 157.968C118.145 157.956 118.067 157.912 118.002 157.836L117.916 157.734C117.862 157.67 117.842 157.591 117.853 157.5C117.865 157.409 117.904 157.336 117.973 157.284C118.248 157.068 118.438 156.838 118.544 156.599C118.559 156.568 118.549 156.553 118.511 156.553H115.93V156.55ZM117.009 156.841H117.168C117.259 156.841 117.338 156.873 117.402 156.938C117.466 157.002 117.497 157.081 117.492 157.171C117.478 157.781 117.397 158.242 117.253 158.558C117.108 158.873 116.861 159.139 116.511 159.357C116.435 159.407 116.351 159.42 116.259 159.397C116.167 159.373 116.094 159.322 116.037 159.243L115.963 159.135C115.917 159.063 115.904 158.983 115.926 158.898C115.947 158.812 115.993 158.745 116.066 158.695C116.283 158.546 116.436 158.365 116.522 158.15C116.61 157.935 116.66 157.611 116.671 157.177C116.676 157.087 116.709 157.006 116.774 156.94C116.839 156.875 116.918 156.841 117.009 156.841Z" fill="#4B4B4B"/>
<path d="M121.632 159.478C121.537 159.483 121.458 159.451 121.395 159.385C121.332 159.318 121.301 159.239 121.301 159.148V155.085C121.301 154.994 121.334 154.917 121.398 154.854C121.462 154.791 121.538 154.76 121.626 154.76H121.985C122.076 154.76 122.155 154.791 122.219 154.854C122.283 154.917 122.315 154.994 122.315 155.085V158.486C122.315 158.498 122.32 158.51 122.33 158.52C122.339 158.532 122.351 158.535 122.361 158.532C122.985 158.448 123.487 158.255 123.867 157.953C124.247 157.651 124.561 157.195 124.81 156.585C124.843 156.498 124.902 156.438 124.983 156.406C125.065 156.374 125.148 156.372 125.232 156.403L125.489 156.505C125.577 156.539 125.638 156.599 125.674 156.682C125.711 156.765 125.711 156.851 125.677 156.939C125.308 157.829 124.808 158.47 124.177 158.862C123.546 159.253 122.697 159.459 121.632 159.478Z" fill="#4B4B4B"/>
<path d="M127.191 155.763C127.108 155.725 127.052 155.663 127.026 155.577C127 155.491 127.008 155.409 127.055 155.329L127.187 155.066C127.229 154.983 127.293 154.926 127.381 154.898C127.469 154.869 127.556 154.874 127.644 154.912C128.043 155.102 128.455 155.308 128.877 155.529C128.96 155.567 129.015 155.631 129.039 155.72C129.064 155.81 129.055 155.894 129.013 155.975L128.86 156.238C128.817 156.314 128.753 156.366 128.665 156.394C128.578 156.423 128.491 156.414 128.408 156.368C127.999 156.159 127.594 155.957 127.191 155.763ZM131.341 155.478C131.431 155.497 131.503 155.545 131.552 155.621C131.602 155.697 131.617 155.779 131.598 155.867C131.37 156.891 130.918 157.687 130.245 158.258C129.571 158.83 128.654 159.185 127.494 159.325C127.399 159.337 127.315 159.315 127.242 159.259C127.169 159.204 127.127 159.129 127.111 159.034L127.071 158.765C127.057 158.678 127.076 158.599 127.128 158.529C127.181 158.459 127.254 158.418 127.345 158.406C128.296 158.273 129.036 157.991 129.567 157.558C130.097 157.126 130.471 156.496 130.689 155.666C130.712 155.576 130.762 155.506 130.841 155.457C130.918 155.409 131.002 155.396 131.089 155.415L131.341 155.478Z" fill="#4B4B4B"/>
<path d="M132.808 159.17L132.705 158.976C132.663 158.9 132.657 158.817 132.685 158.727C132.714 158.638 132.765 158.573 132.841 158.53C134.158 157.838 135.135 156.926 135.775 155.796C135.779 155.789 135.778 155.78 135.772 155.77C135.766 155.761 135.757 155.756 135.746 155.756H133.401C133.31 155.756 133.23 155.722 133.164 155.656C133.097 155.589 133.065 155.51 133.065 155.419V155.213C133.065 155.123 133.098 155.042 133.164 154.977C133.231 154.91 133.31 154.877 133.401 154.877H136.529C136.62 154.877 136.7 154.911 136.766 154.977C136.833 155.044 136.865 155.123 136.865 155.213V155.419C136.865 155.644 136.815 155.853 136.716 156.048C136.469 156.501 136.174 156.927 135.832 157.326C135.809 157.35 135.809 157.374 135.832 157.401C136.262 157.778 136.7 158.177 137.144 158.599C137.208 158.66 137.24 158.736 137.24 158.83C137.24 158.923 137.208 159.001 137.144 159.061L136.961 159.237C136.897 159.302 136.818 159.335 136.728 159.337C136.637 159.338 136.557 159.307 136.488 159.243C136.073 158.844 135.645 158.444 135.204 158.045C135.177 158.026 135.153 158.026 135.129 158.045C134.574 158.551 133.953 158.973 133.269 159.312C133.182 159.354 133.092 159.362 133.003 159.335C132.914 159.309 132.848 159.253 132.808 159.17Z" fill="#4B4B4B"/>
<path d="M138.195 156.511L138.165 156.295C138.154 156.204 138.176 156.122 138.231 156.052C138.287 155.982 138.358 155.937 138.444 155.918L139.358 155.78C139.388 155.773 139.403 155.754 139.403 155.723V154.948C139.403 154.857 139.437 154.778 139.502 154.714C139.569 154.649 139.648 154.617 139.739 154.617H140.018C140.109 154.617 140.188 154.651 140.252 154.717C140.316 154.784 140.348 154.86 140.348 154.948V155.582C140.348 155.615 140.363 155.63 140.394 155.621L142.917 155.238C143.007 155.224 143.089 155.243 143.162 155.298C143.234 155.354 143.276 155.427 143.288 155.517L143.322 155.734C143.352 155.97 143.32 156.175 143.225 156.35C142.95 156.856 142.584 157.32 142.123 157.743C142.059 157.804 141.98 157.832 141.887 157.826C141.793 157.82 141.713 157.785 141.644 157.721L141.473 157.538C141.412 157.474 141.383 157.398 141.384 157.313C141.386 157.227 141.421 157.152 141.489 157.088C141.764 156.837 142.004 156.566 142.208 156.277C142.216 156.27 142.217 156.261 142.211 156.251C142.205 156.242 142.199 156.239 142.191 156.242L140.394 156.511C140.363 156.518 140.348 156.537 140.348 156.568V157.778C140.348 157.911 140.35 158.016 140.354 158.092C140.358 158.168 140.37 158.239 140.391 158.305C140.411 158.372 140.436 158.419 140.462 158.445C140.489 158.472 140.534 158.497 140.6 158.517C140.664 158.537 140.73 158.551 140.797 158.554C140.864 158.558 140.959 158.559 141.085 158.559C141.678 158.559 142.251 158.527 142.803 158.463C142.893 158.451 142.975 158.475 143.045 158.532C143.116 158.589 143.154 158.662 143.156 158.748L143.162 158.936C143.17 159.031 143.145 159.115 143.085 159.185C143.026 159.255 142.949 159.294 142.854 159.302C142.223 159.37 141.551 159.407 140.839 159.41C140.287 159.41 139.91 159.31 139.707 159.113C139.504 158.916 139.401 158.536 139.401 157.978V156.717C139.401 156.705 139.397 156.694 139.387 156.683C139.377 156.672 139.366 156.669 139.356 156.672L138.569 156.791C138.478 156.806 138.395 156.787 138.32 156.732C138.249 156.676 138.206 156.601 138.195 156.511Z" fill="#4B4B4B"/>
<path d="M144.724 155.763C144.641 155.725 144.585 155.663 144.559 155.577C144.533 155.491 144.542 155.409 144.588 155.329L144.72 155.066C144.762 154.983 144.827 154.926 144.914 154.898C145.002 154.869 145.09 154.874 145.177 154.912C145.576 155.102 145.988 155.308 146.41 155.529C146.494 155.567 146.548 155.631 146.573 155.72C146.597 155.81 146.589 155.894 146.546 155.975L146.393 156.238C146.35 156.314 146.286 156.366 146.198 156.394C146.111 156.423 146.025 156.414 145.941 156.368C145.532 156.159 145.128 155.957 144.724 155.763ZM148.874 155.478C148.964 155.497 149.036 155.545 149.086 155.621C149.135 155.697 149.15 155.779 149.131 155.867C148.903 156.891 148.451 157.687 147.778 158.258C147.104 158.83 146.187 159.185 145.027 159.325C144.932 159.337 144.848 159.315 144.775 159.259C144.702 159.204 144.66 159.129 144.644 159.034L144.604 158.765C144.59 158.678 144.609 158.599 144.661 158.529C144.714 158.459 144.787 158.418 144.878 158.406C145.829 158.273 146.57 157.991 147.1 157.558C147.63 157.126 148.004 156.496 148.222 155.666C148.245 155.576 148.295 155.506 148.374 155.457C148.451 155.409 148.535 155.396 148.622 155.415L148.874 155.478Z" fill="#4B4B4B"/>
<path d="M150.392 157.379L150.249 157.247C150.184 157.19 150.148 157.116 150.14 157.022C150.133 156.929 150.159 156.85 150.221 156.786C150.704 156.211 151.02 155.58 151.168 154.891C151.187 154.796 151.233 154.718 151.308 154.66C151.382 154.601 151.463 154.573 151.55 154.576L151.784 154.594C151.879 154.601 151.955 154.639 152.012 154.705C152.069 154.772 152.09 154.847 152.075 154.93C152.075 154.942 152.071 154.961 152.063 154.987C152.056 155.013 152.052 155.032 152.052 155.044C152.047 155.056 152.05 155.067 152.06 155.078C152.069 155.089 152.081 155.095 152.091 155.095H154.34C154.43 155.095 154.509 155.127 154.573 155.192C154.638 155.256 154.67 155.332 154.67 155.419C154.663 156.732 154.372 157.71 153.799 158.356C153.226 159.001 152.31 159.397 151.051 159.541C150.956 159.553 150.872 159.529 150.799 159.473C150.726 159.416 150.681 159.341 150.662 159.25L150.628 159.056C150.614 158.966 150.633 158.884 150.688 158.814C150.744 158.743 150.816 158.703 150.902 158.691C151.819 158.565 152.481 158.317 152.887 157.943C152.911 157.919 152.906 157.9 152.876 157.886C152.586 157.737 152.223 157.56 151.786 157.355C151.702 157.317 151.648 157.256 151.623 157.173C151.599 157.089 151.609 157.009 151.654 156.933L151.78 156.694C151.822 156.61 151.886 156.553 151.974 156.526C152.062 156.496 152.149 156.502 152.237 156.54C152.716 156.761 153.099 156.943 153.384 157.088C153.41 157.1 153.429 157.094 153.441 157.07C153.555 156.767 153.625 156.407 153.653 155.992C153.653 155.962 153.638 155.947 153.608 155.947H151.838C151.805 155.947 151.781 155.962 151.77 155.992C151.561 156.49 151.26 156.948 150.868 157.363C150.807 157.427 150.729 157.462 150.634 157.465C150.541 157.468 150.46 157.439 150.392 157.379Z" fill="#4B4B4B"/>
<path d="M156.236 157.583C156.146 157.583 156.067 157.55 156.002 157.484C155.938 157.417 155.906 157.341 155.906 157.253V156.974C155.906 156.883 155.94 156.803 156.005 156.737C156.072 156.67 156.148 156.638 156.236 156.638H160.448C160.539 156.638 160.618 156.672 160.682 156.737C160.747 156.805 160.779 156.883 160.779 156.974V157.253C160.779 157.344 160.745 157.423 160.679 157.487C160.612 157.551 160.536 157.583 160.448 157.583H156.236Z" fill="#4B4B4B"/>
<path d="M123.023 65.7638L111.626 64.05L113.382 53.403L124.779 55.1169L123.023 65.7638Z" fill="#EEEDEE"/>
<path d="M113.382 53.403L117.238 52.2224L127.019 53.8691L124.779 55.1169L113.382 53.403Z" fill="#4FAD82"/>
<path d="M127.019 53.8691L125.216 64.8024L123.023 65.7638L124.779 55.1169L127.019 53.8691Z" fill="#F2A591"/>
<path fill-rule="evenodd" clip-rule="evenodd" d="M117.831 55.7042L121.695 56.293L121.564 57.0689L120.751 56.9447L119.713 63.1573L118.899 63.0331L119.937 56.8205L119.123 56.6963L118.086 62.9089L117.272 62.7847L117.726 60.067L117.117 59.9735C115.897 59.788 115.042 58.6629 115.236 57.497C115.434 56.3339 116.611 55.5187 117.831 55.7042ZM117.248 59.1977L117.858 59.2912L118.312 56.5736L117.703 56.4801C116.93 56.3617 116.176 56.8848 116.053 57.6226C115.929 58.3605 116.475 59.0808 117.248 59.1977Z" fill="#5A9DB6"/>
<path d="M114.525 56.2989C114.079 62.4588 107.539 72.2891 100.735 75.3092C94.879 77.9055 87.1805 74.7043 86.7247 71.8975C86.2133 68.7357 89.8938 68.5706 93.0746 71.0223C99.2828 75.8045 108.7 66.7851 111.334 58.8879L114.525 56.2989Z" fill="#EF8418"/>
<path d="M104.88 69.89L72.7362 71.11L70.9054 39.8747L103.264 38.2237L104.88 69.89Z" fill="#EEEDEE"/>
<path d="M70.9054 39.8747L83.0354 34.777L110.339 33.7659L103.264 38.2237L70.9054 39.8747Z" fill="#5A9DB6"/>
<path d="M110.339 33.7659L112.244 61.5442L104.88 69.89L103.264 38.2237L110.339 33.7659Z" fill="#4FAD82"/>
<path d="M95.7104 34.1735L98.5084 32.4874L106.391 33.0485L107.577 33.8696L95.801 34.4482L95.7104 34.1735Z" fill="#CDA918"/>
<path d="M91.97 33.7191C88.4137 34.3182 88.1303 32.6934 88.9455 32.6043C89.7594 32.5137 92.0182 31.5041 93.1959 30.5602L91.97 33.7191Z" fill="#EF8418"/>
<path d="M118.023 36.3783C116.613 30.4054 112.791 26.0498 106.97 25.2375C101.15 24.4266 96.0026 26.4619 92.9942 30.2534C90.9648 32.8103 91.9992 34.3854 92.7868 34.7697C93.1769 34.9596 93.9133 34.9669 94.6365 34.8164C95.7528 34.5841 96.9085 34.0902 97.4433 33.5365C97.6464 33.3261 98.2776 32.7066 98.2776 32.7066C99.8161 34.0829 103.53 34.4789 105.818 34.0128L105.776 34.1808C105.818 34.0128 101.751 34.2261 100.623 35.7573C99.6218 37.1147 100.073 38.326 101.734 38.6839C103.396 39.0448 105.054 38.456 107.678 39.28C108.621 39.5766 109.303 39.9185 109.921 40.3642C110.06 40.465 110.679 40.9296 110.814 41.0421L111.505 50.5787C107.843 49.9577 105.216 53.4249 104.476 55.973C103.919 56.3646 102.994 56.9067 101.594 57.4181C100.817 57.703 98.7334 58.3386 98.7992 59.7047C98.8649 61.0708 100.159 62.4501 101.594 62.4369C106.159 62.3931 107.599 60.8619 108.055 59.9005C108.916 59.6214 110.226 59.0618 111.727 58.752C113.207 58.4467 114.186 58.2158 115.92 57.1317C117.075 56.4099 118.327 55.2103 118.683 53.9874C120.815 46.7024 119.228 41.4921 118.023 36.3783Z" fill="#F4CA1D"/>
<path d="M113.403 28.0603C111.826 27.7593 112.932 29.0831 113.414 29.5842C113.898 30.0825 117.327 33.9485 120.981 33.272C124.637 32.5956 126.016 29.7917 125.327 29.5375C124.637 29.2833 116.648 28.6813 113.403 28.0603Z" fill="#EF8418"/>
<path d="M97.959 30.344C97.2738 30.7502 97.4023 31.358 98.0993 31.5231C98.7977 31.6897 98.8474 31.7408 99.5531 31.3244C100.32 30.87 100.504 29.9963 99.6977 29.9963C98.8912 29.9992 98.3404 30.1161 97.959 30.344Z" fill="#4B4B4B"/>
<path d="M96.0611 30.4945C96.0128 30.9358 95.6183 31.2528 95.18 31.2046C94.7388 31.1564 94.4217 30.7619 94.4699 30.3206C94.5181 29.8823 94.9112 29.5652 95.3524 29.6135C95.7922 29.6617 96.1093 30.0562 96.0611 30.4945Z" fill="#4B4B4B"/>
<path d="M105.506 29.2847C105.457 29.726 105.061 30.043 104.622 29.9948C104.18 29.9466 103.863 29.5521 103.912 29.1109C103.96 28.6725 104.353 28.3555 104.794 28.4037C105.234 28.4519 105.554 28.8464 105.506 29.2847Z" fill="#4B4B4B"/>
<path d="M92.1979 33.8915C91.6968 33.0748 89.0098 32.9579 88.3713 34.2612C87.7328 35.5616 89.0186 36.5186 90.5133 36.3009C92.008 36.0817 92.683 34.6835 92.1979 33.8915Z" fill="#F4CA1D"/>
<path d="M103.388 34.381C103.388 34.381 106.461 34.0771 108.599 34.4424C110.177 34.7112 112.073 35.281 113.244 36.5011C113.244 36.5011 113.026 36.0598 112.367 35.6273C110.887 34.6528 107.694 33.3276 103.388 34.381Z" fill="white"/>
<path d="M113.33 28.0661C113.33 28.0661 112.795 28.0077 112.725 28.3321C112.665 28.6097 112.842 29.0948 113.911 30.1014C113.91 30.1014 110.916 27.6497 113.33 28.0661Z" fill="white"/>
<path d="M88.7308 64.7747C82.8426 65.2554 77.6601 60.8546 77.1808 54.9664C76.7001 49.0782 81.1009 43.8957 86.9891 43.4164C92.8773 42.9357 98.0598 47.3365 98.5391 53.2247C99.0198 59.1115 94.619 64.294 88.7308 64.7747ZM87.1542 45.4546C82.3911 45.8433 78.8304 50.0352 79.219 54.7983C79.6077 59.5615 83.7996 63.1222 88.5627 62.7335C93.3259 62.3449 96.8851 58.153 96.4965 53.3898C96.1078 48.6267 91.9189 45.066 87.1542 45.4546Z" fill="#4B4B4B"/>
<path d="M96.4322 56.1966C95.9953 56.3193 95.1654 56.5575 95.1654 56.5575C95.5935 56.3135 95.8945 55.4456 95.9281 54.8816C95.9281 54.8816 94.9974 54.9927 93.9629 55.4398C91.8926 56.3339 91.0159 57.9017 90.7587 59.5264C90.9268 58.305 90.8932 56.651 89.5212 55.1461C89.3079 54.9123 88.9105 54.471 88.5072 54.059C88.0762 54.7209 87.9345 55.2221 87.8862 55.4836C87.7971 55.2337 87.575 54.7618 87.0432 54.1788C86.7115 54.6508 86.3901 55.1505 86.2177 55.4149C85.1072 57.1215 85.341 58.7594 85.7063 59.937C85.1891 58.3751 84.0699 56.9695 81.8826 56.4231C80.7897 56.1499 79.8532 56.1908 79.8532 56.1908C79.9773 56.7416 80.4157 57.5496 80.8774 57.7205C80.8774 57.7205 80.0197 57.6197 79.5682 57.57C80.0036 62.9118 87.4801 63.5781 88.3436 63.6321V63.6423L88.757 63.6087L88.7556 63.5985C89.5972 63.4086 96.8676 61.5384 96.4322 56.1966Z" fill="#4B4B4B"/>
<path d="M88.7088 59.2868C88.909 59.4855 88.9631 59.6799 89.4964 60.856L89.6849 61.2388C89.7258 61.3221 89.8441 61.3177 89.8821 61.233C90.1027 60.7202 90.2561 60.0539 90.1363 59.2678C90.0793 58.8865 90.1305 58.3868 90.6346 58.3152C91.0597 58.2553 91.4323 58.5241 91.4791 59.0969C91.5624 60.124 91.0407 61.626 89.1004 62.3917C89.1004 62.3917 89.1866 62.3142 89.3093 62.1652C89.5008 61.9358 89.5329 61.6728 89.4277 61.4975L88.2924 60.1328C88.1785 59.9691 87.9871 59.9414 87.8921 60.1942L87.5926 61.5165C87.5107 61.8993 87.5443 62.133 87.7825 62.3317C87.9023 62.4326 87.9798 62.4822 87.9798 62.4822C85.9401 62.041 85.1818 60.6427 85.0985 59.6156C85.0517 59.0413 85.3761 58.7155 85.8057 58.7068C86.3141 58.6951 86.4471 59.1816 86.4515 59.5659C86.4617 60.4002 86.7451 61.0547 87.0651 61.5311C87.1133 61.6027 87.2229 61.5895 87.2551 61.5106L87.6642 59.8143C87.727 59.2897 88.3027 58.8835 88.7088 59.2868Z" fill="#EEEDEE"/>
<path d="M81.5261 49.7912C81.8417 49.7079 82.4393 49.5472 82.4393 49.5472C82.131 49.7094 81.9089 50.2821 81.8826 50.6518C81.8826 50.6518 82.5533 50.5743 83.2984 50.2748C84.7917 49.6772 85.4316 48.6413 85.6245 47.5732C85.4974 48.3768 85.5134 49.4639 86.4924 50.4443C86.6443 50.5962 86.9278 50.8841 87.2171 51.1529C87.5297 50.716 87.6349 50.3858 87.6715 50.2134C87.7343 50.3771 87.8921 50.6854 88.272 51.0667C88.5131 50.7555 88.7468 50.4253 88.8725 50.25C89.6805 49.122 89.5198 48.0481 89.2641 47.2752C89.6279 48.2994 90.4256 49.217 91.9978 49.5647C92.7824 49.7386 93.4559 49.7064 93.4559 49.7064C93.3697 49.3455 93.0585 48.8166 92.7269 48.707C92.7269 48.707 93.3434 48.7684 93.6678 48.7991C93.3814 45.291 88.0061 44.8921 87.3866 44.8614V44.8541L87.0885 44.879L87.09 44.8863C86.4792 45.0178 81.2397 46.2831 81.5261 49.7912Z" fill="#4B4B4B"/>
<path d="M87.1923 48.146C87.0447 47.9999 87.0038 47.8552 86.6093 46.9844L86.4705 46.7024C86.4398 46.641 86.3521 46.644 86.3244 46.7068C86.1607 47.0852 86.0482 47.5791 86.1359 48.1606C86.1783 48.4426 86.1403 48.8122 85.7677 48.8648C85.4536 48.9101 85.1774 48.71 85.1423 48.2862C85.081 47.5265 85.4667 46.416 86.9015 45.8491C86.9015 45.8491 86.8372 45.9076 86.7466 46.0157C86.6049 46.1852 86.5815 46.3795 86.6589 46.5095L87.4991 47.5192C87.5838 47.6404 87.7241 47.6609 87.7942 47.4739L88.0148 46.4964C88.0748 46.2129 88.0499 46.0405 87.8746 45.893C87.7855 45.8185 87.7285 45.7819 87.7285 45.7819C89.2363 46.1092 89.7974 47.1422 89.8602 47.902C89.8953 48.3257 89.6557 48.5668 89.3371 48.5741C88.9616 48.5828 88.8623 48.2234 88.8594 47.9385C88.852 47.3219 88.6417 46.8368 88.405 46.4847C88.3699 46.4321 88.2881 46.4409 88.2647 46.5008L87.9622 47.7544C87.9184 48.1445 87.4932 48.4455 87.1923 48.146Z" fill="#EEEDEE"/>
<path d="M87.1236 45.0806C92.0942 44.6744 96.4673 48.3885 96.872 53.3592C97.2782 58.3298 93.5641 62.7029 88.5934 63.1076C83.6228 63.5138 79.2497 59.7997 78.845 54.829C78.4403 49.8598 82.1544 45.4868 87.1236 45.0806ZM87.1104 44.9213C82.0433 45.3348 78.2723 49.7765 78.6843 54.8436C79.0978 59.9107 83.5395 63.6818 88.6066 63.2698C93.6737 62.8563 97.4447 58.4145 97.0327 53.3475C96.6207 48.2789 92.1775 44.5078 87.1104 44.9213Z" fill="#EEEDEE"/>
<path d="M81.7847 52.7849C81.7847 52.7849 81.5831 52.1348 81.7657 52.1172C82.7827 52.0164 83.7397 52.9398 84.1999 54.1175C84.5024 54.8948 84.6821 56.2857 84.6821 56.2857C84.6821 56.2857 84.1035 55.7334 81.9572 55.3682C80.7196 55.1563 80.2126 53.891 80.6568 52.7484C80.762 52.4796 81.7847 52.7849 81.7847 52.7849Z" fill="#4B4B4B"/>
<path d="M93.4969 51.5138C93.4969 51.5138 93.5728 50.8373 93.3887 50.8534C92.3704 50.9469 91.6062 52.034 91.3768 53.2773C91.2263 54.097 91.3125 55.4982 91.3125 55.4982C91.3125 55.4982 91.7772 54.8466 93.8139 54.0824C94.9886 53.6412 95.2473 52.3028 94.5956 51.264C94.4451 51.0214 93.4969 51.5138 93.4969 51.5138Z" fill="#4B4B4B"/>
<path d="M92.2666 70.4627C89.7097 68.873 87.087 68.9403 86.7203 70.8543L92.2666 70.4627Z" fill="#EF8418"/>
<path opacity="0.54" d="M100.834 38.3625C100.834 38.3625 101.615 38.8271 103.391 38.8271C104.822 38.8271 105.893 38.7614 107.465 39.1982C108.799 39.5679 109.974 40.3335 110.815 41.0421C110.815 41.0421 111.851 42.3133 112.49 46.267C112.586 46.8646 112.547 47.376 112.49 47.9531C112.284 50.0235 111.498 50.5012 111.498 50.5012L110.917 42.7399C110.472 41.6616 109.914 41.159 108.203 40.2663C106.894 39.5839 104.768 39.3794 104.768 39.3794C102.415 39.3341 101.8 39.3356 100.834 38.3625Z" fill="#B9B9B9"/>
<path d="M113.771 22.6464L108.47 20.3459L106.219 25.5333L111.52 27.8337L113.771 22.6464Z" fill="#4FAD82"/>
<path d="M108.466 20.3428L110.489 20.2274L115.016 22.2905L113.767 22.6426L108.466 20.3428Z" fill="#E7C162"/>
<path d="M115.016 22.2905L112.704 27.6176L111.515 27.8295L113.767 22.6426L115.016 22.2905Z" fill="#5A9DB6"/>
<path d="M111.823 16.7299L107.221 15.8509L106.361 20.3542L110.963 21.2332L111.823 16.7299Z" fill="#EEEDEE"/>
<path d="M107.225 15.8543L108.806 15.4029L112.754 16.2328L111.828 16.7339L107.225 15.8543Z" fill="#E7C162"/>
<path d="M112.754 16.2328L111.87 20.8572L110.967 21.237L111.828 16.7339L112.754 16.2328Z" fill="#F2A591"/>
<path opacity="0.54" d="M88.44 35.6375C88.44 35.6375 88.9149 36.9204 90.7339 36.7684C91.0758 36.7392 91.8794 36.5025 92.7911 35.471C93.0848 35.1393 93.3464 35.3073 93.8227 35.303C94.8367 35.2942 95.7236 34.5169 95.7236 34.5169C95.7236 34.5169 94.4919 34.8939 93.3201 34.6513C92.5092 34.4833 92.0927 33.9631 92.0927 33.9631C92.0927 33.9631 92.1994 35.8582 90.5118 36.2994C89.2407 36.634 88.44 35.6375 88.44 35.6375Z" fill="#B9B9B9"/>
<path opacity="0.54" d="M113.825 30.0547C113.825 30.0547 115.613 31.7379 116.53 32.1791L117.088 33.5745C117.088 33.573 114.721 31.9381 113.825 30.0547Z" fill="#B9B9B9"/>
<path opacity="0.54" d="M70.9054 39.8747L85.9576 37.9431L88.1054 34.6615L86.7013 34.6703L70.9054 39.8747Z" fill="#B9B9B9"/>
<path d="M81.2104 20.9043L65.0618 24.8595L68.8683 40.4008L85.0169 36.4455L81.2104 20.9043Z" fill="#F2A591"/>
<path d="M65.0552 24.8635L69.4999 21.1172L83.4621 17.9642L81.2032 20.9083L65.0552 24.8635Z" fill="#5A9DB6"/>
<path d="M83.4621 17.9642L87.3836 33.9193L85.0225 36.4455L81.2032 20.9083L83.4621 17.9642Z" fill="#EEEDEE"/>
<path fill-rule="evenodd" clip-rule="evenodd" d="M74.0497 26.2354C71.4694 26.8432 69.8491 29.4162 70.4481 31.9527C71.0472 34.4891 73.6479 36.0686 76.2282 35.4593C78.8085 34.8515 80.4288 32.2785 79.8298 29.742C79.2307 27.2056 76.63 25.6261 74.0497 26.2354ZM75.1718 28.8917L74.2338 29.1123L74.5611 30.496L73.154 30.8276L73.3718 31.7496L74.7788 31.4179L75.1061 32.8016L76.0441 32.5809L75.7168 31.1973L77.1238 30.8656L76.9061 29.9437L75.4991 30.2753L75.1718 28.8917ZM71.3861 31.732C71.8654 33.7615 73.946 35.0239 76.0105 34.5373C78.075 34.0508 79.371 31.9921 78.8918 29.9627C78.4125 27.9332 76.3319 26.6708 74.2674 27.1574C72.2029 27.6439 70.9069 29.7026 71.3861 31.732Z" fill="#EEEDEE"/>
<path opacity="0.54" d="M114.079 58.752L112.057 59.3233C110.833 59.6375 108.868 60.1664 108.743 60.3081C107.536 61.6742 106.138 62.4998 104.423 62.754C104.423 62.754 102.845 62.9863 101.596 62.4369C101.596 62.4369 103.735 62.4793 105.196 61.9708C106.657 61.4624 107.398 61.081 108.033 59.9385C108.033 59.9385 109.198 59.4724 109.896 59.2401C110.595 59.0077 111.654 58.7535 112.395 58.6045C113.135 58.4569 114.237 58.0332 114.237 58.0332C115.042 57.6738 116.969 56.67 117.985 55.2805C118.79 54.1788 119.065 52.5702 119.065 52.5702C119.065 52.5702 119.139 53.3007 119.032 53.8296C118.926 54.3585 118.083 57.3538 114.079 58.752Z" fill="#B9B9B9"/>
<path d="M107.328 51.7081C107.328 51.7081 110.66 49.7722 112.735 51.3399C112.735 51.3399 110.919 49.0679 107.328 51.7081Z" fill="white"/>
<path opacity="0.54" d="M112.244 61.5442L104.943 70.8645L101.555 71.034L103.375 69.9323L104.88 69.89L112.244 61.5442Z" fill="#B9B9B9"/>
<path opacity="0.54" d="M93.0746 71.0238C93.0746 71.0238 94.4392 72.8969 96.0055 72.7698C97.5718 72.6427 99.3193 72.0071 99.3193 72.0071C99.3193 72.0071 95.8185 73.2592 93.0746 71.0238Z" fill="#B9B9B9"/>
<path d="M95.9705 34.4409C95.9705 34.4409 97.0721 34.1049 98.1227 32.8921C98.2059 32.7957 98.352 32.7826 98.4499 32.8658C98.7845 33.1478 99.6057 33.7235 100.928 33.9134C100.928 33.9134 99.2944 33.3685 98.3959 32.5824C98.2907 32.4903 98.127 32.5137 98.0481 32.6306C97.7764 33.0397 97.1116 33.8828 95.9705 34.4409Z" fill="white"/>
</g>
<defs>
<clipPath id="clip0">
<rect width="192.67" height="192.67" fill="white"/>
</clipPath>
</defs>
</svg>
